<?xml version="1.0" encoding="utf-8"?>
<!-- Generator: Adobe Illustrator 16.0.0, SVG Export Plug-In . SVG Version: 6.00 Build 0)  -->
<!DOCTYPE svg PUBLIC "-//W3C//DTD SVG 1.1//EN" "http://www.w3.org/Graphics/SVG/1.1/DTD/svg11.dtd">
<svg version="1.1" id="Lager_1" xmlns="http://www.w3.org/2000/svg" xmlns:xlink="http://www.w3.org/1999/xlink" x="0px" y="0px"
	 width="414.667px" height="146.667px" viewBox="0 0 414.667 146.667" enable-background="new 0 0 414.667 146.667"
	 xml:space="preserve">
<rect x="14.736" y="13.368" width="334.872" height="118.681"/>
<polygon points="400.996,102.378 349.608,132.049 298.216,102.378 298.216,43.035 349.608,13.368 400.996,43.035 "/>
<polygon fill="#FFFFFF" points="357.142,73.154 350.909,76.75 348.833,77.949 344.681,75.554 344.681,70.755 346.757,69.559 
	352.985,65.963 389.521,44.87 373.39,35.556 357.678,44.628 349.37,49.424 329.559,60.86 329.559,84.283 349.844,95.993 
	369.654,84.556 377.963,79.757 377.963,89.289 377.963,89.352 349.844,105.583 321.254,89.079 321.254,56.065 365.084,30.761 
	349.37,21.688 305.539,46.993 305.539,98.151 321.254,107.22 321.254,107.22 349.844,123.729 377.963,107.492 393.673,98.424 
	393.673,80.279 393.673,80.182 393.673,52.061 "/>
<g>
	<path fill="#FFFFFF" d="M43.621,93.991c-2.702-1.433-4.811-3.428-6.324-5.987c-1.516-2.56-2.273-5.456-2.273-8.691
		c0-3.233,0.758-6.12,2.273-8.66c1.513-2.538,3.611-4.522,6.293-5.956c2.682-1.434,5.744-2.15,9.181-2.15
		c3.235,0,6.069,0.657,8.505,1.966c2.437,1.311,4.27,3.194,5.497,5.65l-5.896,3.44c-0.943-1.516-2.119-2.651-3.531-3.409
		c-1.412-0.758-2.958-1.137-4.635-1.137c-2.867,0-5.241,0.933-7.125,2.795c-1.883,1.864-2.824,4.351-2.824,7.461
		c0,3.112,0.931,5.6,2.793,7.461c1.864,1.864,4.248,2.795,7.156,2.795c1.677,0,3.223-0.378,4.635-1.137
		c1.412-0.756,2.588-1.893,3.531-3.409l5.896,3.439c-1.27,2.456-3.122,4.352-5.557,5.682c-2.437,1.33-5.251,1.995-8.445,1.995
		C49.372,96.139,46.324,95.424,43.621,93.991z"/>
	<path fill="#FFFFFF" d="M108.012,66.018c2.558,2.314,3.837,5.803,3.837,10.471v19.222h-7.245v-3.993
		c-0.943,1.434-2.283,2.528-4.022,3.286c-1.741,0.757-3.839,1.135-6.295,1.135c-2.458,0-4.606-0.418-6.449-1.258
		c-1.842-0.839-3.266-2.006-4.267-3.5c-1.005-1.494-1.506-3.183-1.506-5.066c0-2.949,1.095-5.313,3.286-7.093
		c2.189-1.782,5.639-2.673,10.348-2.673h8.475v-0.49c0-2.293-0.686-4.054-2.057-5.282c-1.373-1.228-3.409-1.843-6.11-1.843
		c-1.842,0-3.655,0.288-5.436,0.861s-3.286,1.372-4.513,2.396l-3.009-5.59c1.718-1.309,3.787-2.312,6.202-3.01
		c2.415-0.695,4.974-1.044,7.678-1.044C101.758,62.547,105.452,63.704,108.012,66.018z M101.01,89.23
		c1.494-0.88,2.55-2.139,3.163-3.776v-3.808h-7.921c-4.423,0-6.634,1.455-6.634,4.36c0,1.393,0.553,2.497,1.66,3.317
		c1.104,0.818,2.641,1.227,4.604,1.227C97.806,90.551,99.516,90.113,101.01,89.23z"/>
	<path fill="#FFFFFF" d="M135.001,95.095c-2.538-0.695-4.565-1.576-6.079-2.639l2.947-5.835c1.475,0.984,3.245,1.772,5.313,2.365
		c2.066,0.594,4.104,0.89,6.109,0.89c4.585,0,6.878-1.205,6.878-3.622c0-1.146-0.583-1.944-1.749-2.396
		c-1.167-0.45-3.041-0.878-5.619-1.29c-2.704-0.409-4.904-0.88-6.603-1.412c-1.699-0.531-3.174-1.463-4.422-2.795
		c-1.248-1.328-1.873-3.183-1.873-5.557c0-3.11,1.299-5.598,3.9-7.462c2.599-1.862,6.11-2.795,10.531-2.795
		c2.252,0,4.504,0.257,6.755,0.768c2.252,0.513,4.095,1.198,5.527,2.059l-2.946,5.833c-2.785-1.636-5.918-2.456-9.396-2.456
		c-2.253,0-3.961,0.337-5.128,1.013c-1.167,0.676-1.751,1.565-1.751,2.672c0,1.227,0.623,2.098,1.874,2.61
		c1.248,0.512,3.183,0.994,5.802,1.443c2.62,0.409,4.77,0.88,6.449,1.412c1.679,0.532,3.122,1.434,4.33,2.702
		c1.207,1.27,1.811,3.071,1.811,5.404c0,3.07-1.33,5.528-3.99,7.37c-2.663,1.843-6.285,2.762-10.87,2.762
		C140.139,96.139,137.541,95.792,135.001,95.095z"/>
	<path fill="#FFFFFF" d="M207.039,62.915v32.796h-7.311v-4.176c-1.227,1.472-2.762,2.61-4.604,3.409
		c-1.843,0.798-3.83,1.196-5.959,1.196c-4.38,0-7.829-1.217-10.348-3.654c-2.517-2.435-3.776-6.048-3.776-10.839V62.915h7.676
		v17.688c0,2.948,0.666,5.149,1.996,6.603s3.226,2.18,5.682,2.18c2.742,0,4.922-0.85,6.54-2.548
		c1.617-1.698,2.425-4.146,2.425-7.339V62.915H207.039z"/>
	<path fill="#FFFFFF" d="M251.715,66.018c2.558,2.314,3.839,5.803,3.839,10.471v19.222h-7.247v-3.993
		c-0.943,1.434-2.283,2.528-4.022,3.286c-1.741,0.757-3.839,1.135-6.295,1.135s-4.606-0.418-6.448-1.258
		c-1.841-0.839-3.265-2.006-4.268-3.5c-1.004-1.494-1.504-3.183-1.504-5.066c0-2.949,1.095-5.313,3.284-7.093
		c2.19-1.782,5.64-2.673,10.348-2.673h8.475v-0.49c0-2.293-0.686-4.054-2.057-5.282c-1.373-1.228-3.409-1.843-6.11-1.843
		c-1.842,0-3.653,0.288-5.434,0.861c-1.782,0.573-3.286,1.372-4.516,2.396l-3.009-5.59c1.72-1.309,3.786-2.312,6.204-3.01
		c2.414-0.695,4.974-1.044,7.676-1.044C245.461,62.547,249.155,63.704,251.715,66.018z M244.715,89.23
		c1.494-0.88,2.548-2.139,3.161-3.776v-3.808h-7.921c-4.422,0-6.633,1.455-6.633,4.36c0,1.393,0.554,2.497,1.658,3.317
		c1.105,0.818,2.641,1.227,4.605,1.227C241.511,90.551,243.219,90.113,244.715,89.23z"/>
	<path fill="#FFFFFF" d="M276.373,50.143h7.676v45.568h-7.676V50.143z"/>
</g>
</svg>
