<?xml version="1.0" encoding="utf-8"?>
<!-- Generator: Adobe Illustrator 16.0.0, SVG Export Plug-In . SVG Version: 6.00 Build 0)  -->
<!DOCTYPE svg PUBLIC "-//W3C//DTD SVG 1.1//EN" "http://www.w3.org/Graphics/SVG/1.1/DTD/svg11.dtd">
<svg version="1.1" id="Lager_1" xmlns="http://www.w3.org/2000/svg" xmlns:xlink="http://www.w3.org/1999/xlink" x="0px" y="0px"
	 width="414.667px" height="146.667px" viewBox="0 0 414.667 146.667" enable-background="new 0 0 414.667 146.667"
	 xml:space="preserve">
<polygon points="65.795,13.154 14.401,42.823 14.401,102.167 65.795,131.84 404.667,131.84 404.667,13.154 "/>
<polygon fill="#FFFFFF" points="73.329,72.943 67.097,76.539 65.021,77.738 60.867,75.343 60.867,70.543 62.944,69.348 
	69.173,65.752 105.709,44.657 89.578,35.343 73.865,44.416 65.558,49.211 45.745,60.648 45.745,84.073 66.031,95.783 85.842,84.345 
	94.151,79.546 94.151,89.078 94.151,89.141 66.031,105.374 37.439,88.868 37.439,55.854 81.272,30.548 65.558,21.475 21.725,46.78 
	21.725,97.94 37.439,107.01 37.439,107.01 66.031,123.519 94.151,107.282 109.861,98.213 109.861,80.068 109.861,79.971 
	109.861,51.849 "/>
<g>
	<path fill="#FFFFFF" d="M138.977,89.789c-2.701-1.432-4.811-3.428-6.324-5.987c-1.516-2.558-2.272-5.456-2.272-8.689
		c0-3.235,0.757-6.122,2.272-8.66c1.514-2.538,3.611-4.524,6.294-5.958c2.682-1.432,5.743-2.148,9.182-2.148
		c3.235,0,6.069,0.654,8.506,1.965c2.437,1.311,4.27,3.192,5.497,5.65l-5.896,3.438c-0.942-1.514-2.119-2.651-3.531-3.409
		c-1.412-0.755-2.959-1.135-4.636-1.135c-2.867,0-5.241,0.931-7.125,2.795c-1.884,1.862-2.824,4.349-2.824,7.462
		c0,3.111,0.931,5.598,2.793,7.462c1.864,1.862,4.248,2.793,7.156,2.793c1.677,0,3.224-0.378,4.636-1.136s2.589-1.894,3.531-3.409
		l5.896,3.44c-1.271,2.456-3.123,4.349-5.558,5.68c-2.437,1.332-5.251,1.996-8.445,1.996
		C144.729,91.939,141.681,91.223,138.977,89.789z"/>
	<path fill="#FFFFFF" d="M203.371,61.815c2.557,2.314,3.836,5.805,3.836,10.471v19.223h-7.245v-3.991
		c-0.942,1.434-2.282,2.528-4.022,3.286c-1.741,0.755-3.839,1.135-6.295,1.135c-2.458,0-4.606-0.42-6.449-1.258
		c-1.843-0.84-3.267-2.006-4.268-3.502c-1.005-1.494-1.506-3.183-1.506-5.066c0-2.947,1.095-5.312,3.286-7.094
		c2.189-1.78,5.639-2.671,10.349-2.671h8.475v-0.492c0-2.293-0.686-4.054-2.057-5.281c-1.373-1.229-3.408-1.842-6.11-1.842
		c-1.843,0-3.655,0.286-5.437,0.859c-1.779,0.575-3.285,1.373-4.513,2.396l-3.009-5.589c1.718-1.311,3.786-2.313,6.201-3.009
		c2.416-0.695,4.975-1.044,7.678-1.044C197.116,58.347,200.811,59.503,203.371,61.815z M196.368,85.031
		c1.494-0.881,2.55-2.139,3.163-3.777v-3.808h-7.922c-4.423,0-6.634,1.453-6.634,4.359c0,1.393,0.554,2.499,1.659,3.317
		c1.104,0.82,2.642,1.229,4.605,1.229C193.164,86.352,194.874,85.911,196.368,85.031z"/>
	<path fill="#FFFFFF" d="M230.361,90.896c-2.539-0.695-4.566-1.576-6.08-2.641l2.947-5.833c1.475,0.981,3.245,1.771,5.313,2.365
		c2.067,0.594,4.104,0.89,6.11,0.89c4.585,0,6.878-1.208,6.878-3.623c0-1.147-0.583-1.946-1.749-2.396
		c-1.167-0.45-3.041-0.881-5.619-1.29c-2.704-0.409-4.905-0.88-6.604-1.414c-1.698-0.53-3.173-1.463-4.422-2.793
		c-1.248-1.33-1.873-3.183-1.873-5.559c0-3.11,1.299-5.598,3.901-7.462c2.599-1.862,6.11-2.793,10.531-2.793
		c2.252,0,4.503,0.255,6.755,0.767s4.095,1.198,5.528,2.057l-2.947,5.835c-2.785-1.638-5.917-2.458-9.396-2.458
		c-2.253,0-3.962,0.339-5.128,1.015c-1.167,0.674-1.751,1.566-1.751,2.67c0,1.229,0.623,2.1,1.874,2.61
		c1.248,0.512,3.182,0.994,5.802,1.443c2.62,0.411,4.771,0.88,6.449,1.412c1.679,0.534,3.122,1.434,4.33,2.704
		s1.812,3.069,1.812,5.403c0,3.071-1.33,5.527-3.991,7.37c-2.663,1.843-6.286,2.764-10.87,2.764
		C235.499,91.939,232.9,91.591,230.361,90.896z"/>
	<path fill="#FFFFFF" d="M302.401,58.715v32.794h-7.311v-4.176c-1.227,1.475-2.762,2.61-4.604,3.409
		c-1.842,0.798-3.829,1.198-5.958,1.198c-4.38,0-7.83-1.217-10.349-3.654c-2.517-2.435-3.776-6.05-3.776-10.839V58.715h7.676v17.688
		c0,2.947,0.666,5.148,1.997,6.601c1.33,1.455,3.225,2.181,5.682,2.181c2.742,0,4.922-0.849,6.54-2.549
		c1.617-1.699,2.425-4.145,2.425-7.339V58.715H302.401z"/>
	<path fill="#FFFFFF" d="M347.079,61.815c2.558,2.314,3.839,5.805,3.839,10.471v19.223h-7.247v-3.991
		c-0.943,1.434-2.283,2.528-4.022,3.286c-1.741,0.755-3.839,1.135-6.295,1.135c-2.457,0-4.606-0.42-6.449-1.258
		c-1.841-0.84-3.265-2.006-4.268-3.502c-1.003-1.494-1.504-3.183-1.504-5.066c0-2.947,1.095-5.312,3.284-7.094
		c2.191-1.78,5.641-2.671,10.349-2.671h8.475v-0.492c0-2.293-0.686-4.054-2.057-5.281c-1.373-1.229-3.409-1.842-6.11-1.842
		c-1.843,0-3.654,0.286-5.435,0.859c-1.782,0.575-3.285,1.373-4.515,2.396l-3.01-5.589c1.72-1.311,3.787-2.313,6.204-3.009
		c2.415-0.695,4.975-1.044,7.676-1.044C340.825,58.347,344.52,59.503,347.079,61.815z M340.079,85.031
		c1.493-0.881,2.548-2.139,3.161-3.777v-3.808h-7.922c-4.422,0-6.632,1.453-6.632,4.359c0,1.393,0.553,2.499,1.657,3.317
		c1.106,0.82,2.642,1.229,4.606,1.229C336.875,86.352,338.583,85.911,340.079,85.031z"/>
	<path fill="#FFFFFF" d="M371.738,45.941h7.676v45.568h-7.676V45.941z"/>
</g>
</svg>
