<?xml version="1.0" encoding="utf-8"?>
<!-- Generator: Adobe Illustrator 16.0.0, SVG Export Plug-In . SVG Version: 6.00 Build 0)  -->
<!DOCTYPE svg PUBLIC "-//W3C//DTD SVG 1.1//EN" "http://www.w3.org/Graphics/SVG/1.1/DTD/svg11.dtd">
<svg version="1.1" id="Lager_1" xmlns="http://www.w3.org/2000/svg" xmlns:xlink="http://www.w3.org/1999/xlink" x="0px" y="0px"
	 width="144px" height="146.667px" viewBox="0 0 144 146.667" enable-background="new 0 0 144 146.667" xml:space="preserve">
<polygon points="79.733,74.712 73.47,78.325 71.382,79.531 67.209,77.119 67.207,72.3 69.294,71.094 75.557,67.48 112.281,46.277 
	96.066,36.915 80.271,46.034 71.923,50.855 52.009,62.354 52.009,85.898 72.396,97.669 92.312,86.169 100.661,81.348 
	100.661,90.931 100.661,90.993 72.396,107.309 43.659,90.718 43.659,57.53 87.719,32.095 71.923,22.975 27.865,48.413 
	27.865,99.835 43.659,108.953 43.659,108.953 72.396,125.547 100.661,109.228 116.455,100.108 116.455,81.873 116.455,81.776 
	116.455,53.51 "/>
</svg>
