<?xml version="1.0" encoding="utf-8"?>
<!-- Generator: Adobe Illustrator 16.0.0, SVG Export Plug-In . SVG Version: 6.00 Build 0)  -->
<!DOCTYPE svg PUBLIC "-//W3C//DTD SVG 1.1//EN" "http://www.w3.org/Graphics/SVG/1.1/DTD/svg11.dtd">
<svg version="1.1" id="Lager_1" xmlns="http://www.w3.org/2000/svg" xmlns:xlink="http://www.w3.org/1999/xlink" x="0px" y="0px"
	 width="295.333px" height="197.333px" viewBox="0 0 295.333 197.333" enable-background="new 0 0 295.333 197.333"
	 xml:space="preserve">
<polygon points="157.873,70.518 150.895,74.548 148.567,75.892 143.914,73.205 143.912,67.832 146.239,66.49 153.219,62.459 
	194.15,38.828 176.077,28.394 158.476,38.556 149.169,43.931 126.976,56.746 126.976,82.985 149.699,96.105 171.895,83.29 
	181.2,77.917 181.2,88.594 181.2,88.664 149.699,106.851 117.667,88.357 117.669,51.372 166.773,23.022 149.169,12.858 
	100.064,41.208 100.064,98.521 117.667,108.684 117.667,108.684 149.699,127.175 181.2,108.99 198.804,98.826 198.804,78.501 
	198.804,78.393 198.804,46.886 "/>
<g>
	<path d="M32.762,182.662c-2.714-1.44-4.831-3.442-6.351-6.013c-1.522-2.568-2.281-5.479-2.281-8.727
		c0-3.246,0.759-6.146,2.281-8.694c1.52-2.548,3.626-4.543,6.321-5.981c2.691-1.438,5.765-2.159,9.219-2.159
		c3.248,0,6.094,0.658,8.54,1.974c2.446,1.316,4.287,3.206,5.52,5.674l-5.919,3.453c-0.946-1.521-2.128-2.662-3.547-3.421
		c-1.419-0.761-2.97-1.141-4.657-1.141c-2.877,0-5.262,0.935-7.152,2.805c-1.891,1.871-2.836,4.37-2.836,7.492
		c0,3.125,0.935,5.624,2.805,7.493c1.871,1.873,4.266,2.807,7.184,2.807c1.688,0,3.238-0.381,4.657-1.141
		c1.419-0.761,2.601-1.902,3.547-3.423l5.919,3.453c-1.274,2.467-3.135,4.37-5.579,5.705c-2.446,1.335-5.274,2.004-8.48,2.004
		C38.538,184.82,35.476,184.103,32.762,182.662z"/>
	<path d="M97.422,154.572c2.569,2.322,3.854,5.829,3.854,10.516v19.302h-7.276v-4.009c-0.945,1.44-2.293,2.539-4.039,3.299
		c-1.748,0.759-3.854,1.141-6.32,1.141c-2.468,0-4.626-0.422-6.476-1.264c-1.852-0.843-3.279-2.014-4.287-3.516
		c-1.008-1.5-1.511-3.197-1.511-5.087c0-2.961,1.102-5.334,3.299-7.123c2.2-1.789,5.663-2.684,10.392-2.684h8.512v-0.492
		c0-2.301-0.689-4.07-2.066-5.304c-1.378-1.232-3.423-1.85-6.138-1.85c-1.85,0-3.668,0.289-5.456,0.863
		c-1.788,0.577-3.301,1.379-4.532,2.404l-3.022-5.61c1.728-1.316,3.803-2.322,6.229-3.022c2.425-0.698,4.994-1.048,7.708-1.048
		C91.142,151.087,94.853,152.25,97.422,154.572z M90.391,177.883c1.501-0.884,2.561-2.149,3.178-3.794v-3.822h-7.955
		c-4.441,0-6.661,1.459-6.661,4.378c0,1.396,0.554,2.508,1.665,3.329c1.111,0.824,2.651,1.235,4.625,1.235
		C87.174,179.209,88.89,178.767,90.391,177.883z"/>
	<path d="M124.525,183.772c-2.551-0.698-4.585-1.582-6.107-2.651l2.962-5.859c1.48,0.987,3.258,1.778,5.333,2.375
		c2.076,0.597,4.123,0.895,6.136,0.895c4.605,0,6.909-1.213,6.909-3.64c0-1.15-0.588-1.952-1.759-2.405
		c-1.171-0.451-3.054-0.882-5.644-1.295c-2.713-0.409-4.923-0.882-6.629-1.417c-1.705-0.536-3.186-1.47-4.44-2.808
		c-1.254-1.335-1.881-3.195-1.881-5.58c0-3.124,1.306-5.621,3.916-7.492c2.611-1.871,6.136-2.807,10.577-2.807
		c2.261,0,4.522,0.257,6.783,0.77c2.261,0.515,4.11,1.204,5.551,2.067l-2.961,5.858c-2.796-1.643-5.941-2.466-9.436-2.466
		c-2.261,0-3.977,0.338-5.148,1.017c-1.173,0.677-1.757,1.573-1.757,2.683c0,1.232,0.626,2.107,1.879,2.622
		c1.255,0.515,3.197,0.998,5.828,1.449c2.631,0.409,4.789,0.884,6.475,1.417c1.687,0.536,3.136,1.438,4.349,2.713
		c1.213,1.275,1.818,3.083,1.818,5.428c0,3.083-1.335,5.549-4.008,7.399c-2.674,1.852-6.311,2.775-10.916,2.775
		C129.685,184.82,127.073,184.47,124.525,183.772z"/>
	<path d="M196.861,151.458v32.931h-7.338v-4.194c-1.235,1.48-2.775,2.621-4.627,3.423c-1.848,0.802-3.843,1.202-5.981,1.202
		c-4.399,0-7.862-1.222-10.392-3.668c-2.526-2.446-3.792-6.076-3.792-10.885v-18.809h7.709v17.759c0,2.961,0.668,5.171,2.006,6.631
		c1.333,1.459,3.236,2.189,5.703,2.189c2.754,0,4.943-0.854,6.567-2.559c1.624-1.707,2.436-4.165,2.436-7.371v-16.649H196.861z"/>
	<path d="M241.726,154.572c2.568,2.322,3.854,5.829,3.854,10.516v19.302h-7.276v-4.009c-0.945,1.44-2.293,2.539-4.039,3.299
		c-1.747,0.759-3.854,1.141-6.321,1.141c-2.467,0-4.623-0.422-6.475-1.264c-1.85-0.843-3.279-2.014-4.286-3.516
		c-1.008-1.5-1.51-3.197-1.51-5.087c0-2.961,1.099-5.334,3.299-7.123c2.199-1.789,5.663-2.684,10.39-2.684h8.512v-0.492
		c0-2.301-0.689-4.07-2.064-5.304c-1.38-1.232-3.424-1.85-6.138-1.85c-1.85,0-3.67,0.289-5.458,0.863
		c-1.789,0.577-3.299,1.379-4.533,2.404l-3.02-5.61c1.725-1.316,3.801-2.322,6.227-3.022c2.425-0.698,4.996-1.048,7.71-1.048
		C235.446,151.087,239.156,152.25,241.726,154.572z M234.696,177.883c1.499-0.884,2.56-2.149,3.176-3.794v-3.822h-7.955
		c-4.441,0-6.661,1.459-6.661,4.378c0,1.396,0.556,2.508,1.666,3.329c1.11,0.824,2.651,1.235,4.624,1.235
		C231.478,179.209,233.194,178.767,234.696,177.883z"/>
	<path d="M266.484,138.631h7.71v45.758h-7.71V138.631z"/>
</g>
</svg>
