<?xml version="1.0" encoding="utf-8"?>
<!-- Generator: Adobe Illustrator 23.0.3, SVG Export Plug-In . SVG Version: 6.00 Build 0)  -->
<svg version="1.1" id="Layer_1" xmlns="http://www.w3.org/2000/svg" xmlns:xlink="http://www.w3.org/1999/xlink" x="0px" y="0px"
	 viewBox="0 0 500 500" style="enable-background:new 0 0 500 500;" xml:space="preserve">
<g>
	<path d="M479.7,36.8H20.3c-6.9,0-12.6,5.6-12.6,12.6v109c0,6.9,5.6,12.6,12.6,12.6h459.5c6.9,0,12.6-5.6,12.6-12.6v-109
		C492.3,42.4,486.7,36.8,479.7,36.8z M71.2,159.9c-11,0-19.8-8.9-19.8-19.8s8.9-19.8,19.8-19.8c11,0,19.8,8.9,19.8,19.8
		S82.2,159.9,71.2,159.9z M116.7,159.9c-11,0-19.8-8.9-19.8-19.8s8.9-19.8,19.8-19.8c11,0,19.8,8.9,19.8,19.8
		S127.7,159.9,116.7,159.9z M162.2,159.9c-11,0-19.8-8.9-19.8-19.8s8.9-19.8,19.8-19.8c11,0,19.8,8.9,19.8,19.8
		S173.2,159.9,162.2,159.9z M370.1,144.9c0,1.7-1.4,3.2-3.2,3.2h-7.8c-1.7,0-3.2-1.4-3.2-3.2V62.8c0-1.7,1.4-3.2,3.2-3.2h7.8
		c1.7,0,3.2,1.4,3.2,3.2V144.9z M393.1,144.9c0,1.7-1.4,3.2-3.2,3.2h-7.8c-1.7,0-3.2-1.4-3.2-3.2V62.8c0-1.7,1.4-3.2,3.2-3.2h7.8
		c1.7,0,3.2,1.4,3.2,3.2V144.9z M416.2,144.9c0,1.7-1.4,3.2-3.2,3.2h-7.8c-1.7,0-3.2-1.4-3.2-3.2V62.8c0-1.7,1.4-3.2,3.2-3.2h7.8
		c1.7,0,3.2,1.4,3.2,3.2V144.9z M439.3,144.9c0,1.7-1.4,3.2-3.2,3.2h-7.8c-1.7,0-3.2-1.4-3.2-3.2V62.8c0-1.7,1.4-3.2,3.2-3.2h7.8
		c1.7,0,3.2,1.4,3.2,3.2V144.9z M462.4,144.9c0,1.7-1.4,3.2-3.2,3.2h-7.8c-1.7,0-3.2-1.4-3.2-3.2V62.8c0-1.7,1.4-3.2,3.2-3.2h7.8
		c1.7,0,3.2,1.4,3.2,3.2V144.9z"/>
	<path d="M479.7,182.9H20.3c-6.9,0-12.6,5.6-12.6,12.6v109c0,6.9,5.6,12.6,12.6,12.6h459.5c6.9,0,12.6-5.6,12.6-12.6v-109
		C492.3,188.6,486.7,182.9,479.7,182.9z M71.2,306c-11,0-19.8-8.9-19.8-19.8s8.9-19.8,19.8-19.8c11,0,19.8,8.9,19.8,19.8
		S82.2,306,71.2,306z M116.7,306c-11,0-19.8-8.9-19.8-19.8s8.9-19.8,19.8-19.8c11,0,19.8,8.9,19.8,19.8S127.7,306,116.7,306z
		 M162.2,306c-11,0-19.8-8.9-19.8-19.8s8.9-19.8,19.8-19.8c11,0,19.8,8.9,19.8,19.8S173.2,306,162.2,306z M370.1,291.1
		c0,1.7-1.4,3.2-3.2,3.2h-7.8c-1.7,0-3.2-1.4-3.2-3.2v-82.1c0-1.7,1.4-3.2,3.2-3.2h7.8c1.7,0,3.2,1.4,3.2,3.2V291.1z M393.1,291.1
		c0,1.7-1.4,3.2-3.2,3.2h-7.8c-1.7,0-3.2-1.4-3.2-3.2v-82.1c0-1.7,1.4-3.2,3.2-3.2h7.8c1.7,0,3.2,1.4,3.2,3.2V291.1z M416.2,291.1
		c0,1.7-1.4,3.2-3.2,3.2h-7.8c-1.7,0-3.2-1.4-3.2-3.2v-82.1c0-1.7,1.4-3.2,3.2-3.2h7.8c1.7,0,3.2,1.4,3.2,3.2V291.1z M439.3,291.1
		c0,1.7-1.4,3.2-3.2,3.2h-7.8c-1.7,0-3.2-1.4-3.2-3.2v-82.1c0-1.7,1.4-3.2,3.2-3.2h7.8c1.7,0,3.2,1.4,3.2,3.2V291.1z M462.4,291.1
		c0,1.7-1.4,3.2-3.2,3.2h-7.8c-1.7,0-3.2-1.4-3.2-3.2v-82.1c0-1.7,1.4-3.2,3.2-3.2h7.8c1.7,0,3.2,1.4,3.2,3.2V291.1z"/>
	<path d="M479.7,329.1H20.3c-6.9,0-12.6,5.6-12.6,12.6v109c0,6.9,5.6,12.6,12.6,12.6h459.5c6.9,0,12.6-5.6,12.6-12.6v-109
		C492.3,334.7,486.7,329.1,479.7,329.1z M71.2,452.2c-11,0-19.8-8.9-19.8-19.8s8.9-19.8,19.8-19.8c11,0,19.8,8.9,19.8,19.8
		S82.2,452.2,71.2,452.2z M116.7,452.2c-11,0-19.8-8.9-19.8-19.8s8.9-19.8,19.8-19.8c11,0,19.8,8.9,19.8,19.8
		S127.7,452.2,116.7,452.2z M162.2,452.2c-11,0-19.8-8.9-19.8-19.8s8.9-19.8,19.8-19.8c11,0,19.8,8.9,19.8,19.8
		S173.2,452.2,162.2,452.2z M370.1,437.2c0,1.7-1.4,3.2-3.2,3.2h-7.8c-1.7,0-3.2-1.4-3.2-3.2v-82.1c0-1.7,1.4-3.2,3.2-3.2h7.8
		c1.7,0,3.2,1.4,3.2,3.2V437.2z M393.1,437.2c0,1.7-1.4,3.2-3.2,3.2h-7.8c-1.7,0-3.2-1.4-3.2-3.2v-82.1c0-1.7,1.4-3.2,3.2-3.2h7.8
		c1.7,0,3.2,1.4,3.2,3.2V437.2z M416.2,437.2c0,1.7-1.4,3.2-3.2,3.2h-7.8c-1.7,0-3.2-1.4-3.2-3.2v-82.1c0-1.7,1.4-3.2,3.2-3.2h7.8
		c1.7,0,3.2,1.4,3.2,3.2V437.2z M439.3,437.2c0,1.7-1.4,3.2-3.2,3.2h-7.8c-1.7,0-3.2-1.4-3.2-3.2v-82.1c0-1.7,1.4-3.2,3.2-3.2h7.8
		c1.7,0,3.2,1.4,3.2,3.2V437.2z M462.4,437.2c0,1.7-1.4,3.2-3.2,3.2h-7.8c-1.7,0-3.2-1.4-3.2-3.2v-82.1c0-1.7,1.4-3.2,3.2-3.2h7.8
		c1.7,0,3.2,1.4,3.2,3.2V437.2z"/>
</g>
</svg>
