<?xml version="1.0" encoding="UTF-8" standalone="no"?><svg xmlns="http://www.w3.org/2000/svg" xmlns:xlink="http://www.w3.org/1999/xlink" contentScriptType="application/ecmascript" contentStyleType="text/css" height="499px" preserveAspectRatio="none" style="width:475px;height:499px;" version="1.1" viewBox="0 0 475 499" width="475px" zoomAndPan="magnify"><defs><filter height="300%" id="ft79774req77j" width="300%" x="-1" y="-1"><feGaussianBlur result="blurOut" stdDeviation="2.0"/><feColorMatrix in="blurOut" result="blurOut2" type="matrix" values="0 0 0 0 0 0 0 0 0 0 0 0 0 0 0 0 0 0 .4 0"/><feOffset dx="4.0" dy="4.0" in="blurOut2" result="blurOut3"/><feBlend in="SourceGraphic" in2="blurOut3" mode="normal"/></filter></defs><g><!--class domain--><rect fill="#FEFECE" filter="url(#ft79774req77j)" height="48" id="domain" style="stroke: #A80036; stroke-width: 1.5;" width="138" x="125" y="332"/><ellipse cx="140" cy="348" fill="#ADD1B2" rx="11" ry="11" style="stroke: #A80036; stroke-width: 1.0;"/><path d="M138.2969,348.875 L138.2969,351.2969 L142.6563,351.2969 L142.6563,350.4219 C142.6563,349.9375 142.6875,349.7969 142.7969,349.6406 C142.9688,349.3906 143.2344,349.2813 143.5,349.2813 C143.7813,349.2813 144.0625,349.4375 144.2344,349.6875 C144.3125,349.8438 144.3438,349.9844 144.3438,350.4219 L144.3438,353 L136.3438,353 C135.9531,353 135.7188,352.9531 135.5781,352.8281 C135.3594,352.6719 135.2188,352.4219 135.2188,352.1563 C135.2188,351.8594 135.375,351.5938 135.625,351.4219 C135.7813,351.3125 135.9375,351.2969 136.3438,351.2969 L136.5938,351.2969 L136.5938,344.7813 L136.3438,344.7813 C135.9219,344.7813 135.7344,344.75 135.5781,344.6406 C135.3594,344.4688 135.2188,344.2188 135.2188,343.9375 C135.2188,343.6563 135.375,343.3594 135.625,343.2031 C135.7813,343.1094 135.9063,343.0938 136.3438,343.0938 L143.9688,343.0938 L143.9688,345.6406 C143.9688,346.1094 143.9375,346.25 143.8281,346.4219 C143.6563,346.6406 143.3906,346.7813 143.125,346.7813 C142.8438,346.7813 142.5625,346.625 142.3906,346.375 C142.3125,346.2188 142.2813,346.0469 142.2813,345.6406 L142.2813,344.7813 L138.2969,344.7813 L138.2969,347.1875 L139.75,347.1875 L139.75,347.0625 C139.75,346.6094 139.7813,346.4531 139.8906,346.2813 C140.0625,346.0625 140.3281,345.9219 140.5781,345.9219 C141.0313,345.9219 141.3438,346.2344 141.4063,346.7031 C141.4219,346.8594 141.4219,346.9063 141.4219,347.0625 L141.4219,348.9844 C141.4219,349.4375 141.3906,349.5938 141.2656,349.75 C141.1094,349.9688 140.8438,350.1094 140.5938,350.1094 C140.2969,350.1094 140.0156,349.9531 139.8594,349.7031 C139.7813,349.5469 139.75,349.3906 139.75,348.9844 L139.75,348.875 Z "/><text fill="#000000" font-family="sans-serif" font-size="12" lengthAdjust="spacingAndGlyphs" textLength="106" x="154" y="352.1543">domain-manager</text><line style="stroke: #A80036; stroke-width: 1.5;" x1="126" x2="262" y1="364" y2="364"/><line style="stroke: #A80036; stroke-width: 1.5;" x1="126" x2="262" y1="372" y2="372"/><!--class service--><rect fill="#FEFECE" filter="url(#ft79774req77j)" height="48" id="service" style="stroke: #A80036; stroke-width: 1.5;" width="136" x="126" y="440"/><ellipse cx="141" cy="456" fill="#ADD1B2" rx="11" ry="11" style="stroke: #A80036; stroke-width: 1.0;"/><path d="M139.2969,456.875 L139.2969,459.2969 L143.6563,459.2969 L143.6563,458.4219 C143.6563,457.9375 143.6875,457.7969 143.7969,457.6406 C143.9688,457.3906 144.2344,457.2813 144.5,457.2813 C144.7813,457.2813 145.0625,457.4375 145.2344,457.6875 C145.3125,457.8438 145.3438,457.9844 145.3438,458.4219 L145.3438,461 L137.3438,461 C136.9531,461 136.7188,460.9531 136.5781,460.8281 C136.3594,460.6719 136.2188,460.4219 136.2188,460.1563 C136.2188,459.8594 136.375,459.5938 136.625,459.4219 C136.7813,459.3125 136.9375,459.2969 137.3438,459.2969 L137.5938,459.2969 L137.5938,452.7813 L137.3438,452.7813 C136.9219,452.7813 136.7344,452.75 136.5781,452.6406 C136.3594,452.4688 136.2188,452.2188 136.2188,451.9375 C136.2188,451.6563 136.375,451.3594 136.625,451.2031 C136.7813,451.1094 136.9063,451.0938 137.3438,451.0938 L144.9688,451.0938 L144.9688,453.6406 C144.9688,454.1094 144.9375,454.25 144.8281,454.4219 C144.6563,454.6406 144.3906,454.7813 144.125,454.7813 C143.8438,454.7813 143.5625,454.625 143.3906,454.375 C143.3125,454.2188 143.2813,454.0469 143.2813,453.6406 L143.2813,452.7813 L139.2969,452.7813 L139.2969,455.1875 L140.75,455.1875 L140.75,455.0625 C140.75,454.6094 140.7813,454.4531 140.8906,454.2813 C141.0625,454.0625 141.3281,453.9219 141.5781,453.9219 C142.0313,453.9219 142.3438,454.2344 142.4063,454.7031 C142.4219,454.8594 142.4219,454.9063 142.4219,455.0625 L142.4219,456.9844 C142.4219,457.4375 142.3906,457.5938 142.2656,457.75 C142.1094,457.9688 141.8438,458.1094 141.5938,458.1094 C141.2969,458.1094 141.0156,457.9531 140.8594,457.7031 C140.7813,457.5469 140.75,457.3906 140.75,456.9844 L140.75,456.875 Z "/><text fill="#000000" font-family="sans-serif" font-size="12" lengthAdjust="spacingAndGlyphs" textLength="104" x="155" y="460.1543">service-manager</text><line style="stroke: #A80036; stroke-width: 1.5;" x1="127" x2="261" y1="472" y2="472"/><line style="stroke: #A80036; stroke-width: 1.5;" x1="127" x2="261" y1="480" y2="480"/><!--class transaction--><rect fill="#FEFECE" filter="url(#ft79774req77j)" height="48" id="transaction" style="stroke: #A80036; stroke-width: 1.5;" width="164" x="244" y="224"/><ellipse cx="259" cy="240" fill="#ADD1B2" rx="11" ry="11" style="stroke: #A80036; stroke-width: 1.0;"/><path d="M257.2969,240.875 L257.2969,243.2969 L261.6563,243.2969 L261.6563,242.4219 C261.6563,241.9375 261.6875,241.7969 261.7969,241.6406 C261.9688,241.3906 262.2344,241.2813 262.5,241.2813 C262.7813,241.2813 263.0625,241.4375 263.2344,241.6875 C263.3125,241.8438 263.3438,241.9844 263.3438,242.4219 L263.3438,245 L255.3438,245 C254.9531,245 254.7188,244.9531 254.5781,244.8281 C254.3594,244.6719 254.2188,244.4219 254.2188,244.1563 C254.2188,243.8594 254.375,243.5938 254.625,243.4219 C254.7813,243.3125 254.9375,243.2969 255.3438,243.2969 L255.5938,243.2969 L255.5938,236.7813 L255.3438,236.7813 C254.9219,236.7813 254.7344,236.75 254.5781,236.6406 C254.3594,236.4688 254.2188,236.2188 254.2188,235.9375 C254.2188,235.6563 254.375,235.3594 254.625,235.2031 C254.7813,235.1094 254.9063,235.0938 255.3438,235.0938 L262.9688,235.0938 L262.9688,237.6406 C262.9688,238.1094 262.9375,238.25 262.8281,238.4219 C262.6563,238.6406 262.3906,238.7813 262.125,238.7813 C261.8438,238.7813 261.5625,238.625 261.3906,238.375 C261.3125,238.2188 261.2813,238.0469 261.2813,237.6406 L261.2813,236.7813 L257.2969,236.7813 L257.2969,239.1875 L258.75,239.1875 L258.75,239.0625 C258.75,238.6094 258.7813,238.4531 258.8906,238.2813 C259.0625,238.0625 259.3281,237.9219 259.5781,237.9219 C260.0313,237.9219 260.3438,238.2344 260.4063,238.7031 C260.4219,238.8594 260.4219,238.9063 260.4219,239.0625 L260.4219,240.9844 C260.4219,241.4375 260.3906,241.5938 260.2656,241.75 C260.1094,241.9688 259.8438,242.1094 259.5938,242.1094 C259.2969,242.1094 259.0156,241.9531 258.8594,241.7031 C258.7813,241.5469 258.75,241.3906 258.75,240.9844 L258.75,240.875 Z "/><text fill="#000000" font-family="sans-serif" font-size="12" lengthAdjust="spacingAndGlyphs" textLength="132" x="273" y="244.1543">transaction-manager</text><line style="stroke: #A80036; stroke-width: 1.5;" x1="245" x2="407" y1="256" y2="256"/><line style="stroke: #A80036; stroke-width: 1.5;" x1="245" x2="407" y1="264" y2="264"/><!--class gateway--><rect fill="#FEFECE" filter="url(#ft79774req77j)" height="48" id="gateway" style="stroke: #A80036; stroke-width: 1.5;" width="144" x="170" y="8"/><ellipse cx="185" cy="24" fill="#ADD1B2" rx="11" ry="11" style="stroke: #A80036; stroke-width: 1.0;"/><path d="M183.2969,24.875 L183.2969,27.2969 L187.6563,27.2969 L187.6563,26.4219 C187.6563,25.9375 187.6875,25.7969 187.7969,25.6406 C187.9688,25.3906 188.2344,25.2813 188.5,25.2813 C188.7813,25.2813 189.0625,25.4375 189.2344,25.6875 C189.3125,25.8438 189.3438,25.9844 189.3438,26.4219 L189.3438,29 L181.3438,29 C180.9531,29 180.7188,28.9531 180.5781,28.8281 C180.3594,28.6719 180.2188,28.4219 180.2188,28.1563 C180.2188,27.8594 180.375,27.5938 180.625,27.4219 C180.7813,27.3125 180.9375,27.2969 181.3438,27.2969 L181.5938,27.2969 L181.5938,20.7813 L181.3438,20.7813 C180.9219,20.7813 180.7344,20.75 180.5781,20.6406 C180.3594,20.4688 180.2188,20.2188 180.2188,19.9375 C180.2188,19.6563 180.375,19.3594 180.625,19.2031 C180.7813,19.1094 180.9063,19.0938 181.3438,19.0938 L188.9688,19.0938 L188.9688,21.6406 C188.9688,22.1094 188.9375,22.25 188.8281,22.4219 C188.6563,22.6406 188.3906,22.7813 188.125,22.7813 C187.8438,22.7813 187.5625,22.625 187.3906,22.375 C187.3125,22.2188 187.2813,22.0469 187.2813,21.6406 L187.2813,20.7813 L183.2969,20.7813 L183.2969,23.1875 L184.75,23.1875 L184.75,23.0625 C184.75,22.6094 184.7813,22.4531 184.8906,22.2813 C185.0625,22.0625 185.3281,21.9219 185.5781,21.9219 C186.0313,21.9219 186.3438,22.2344 186.4063,22.7031 C186.4219,22.8594 186.4219,22.9063 186.4219,23.0625 L186.4219,24.9844 C186.4219,25.4375 186.3906,25.5938 186.2656,25.75 C186.1094,25.9688 185.8438,26.1094 185.5938,26.1094 C185.2969,26.1094 185.0156,25.9531 184.8594,25.7031 C184.7813,25.5469 184.75,25.3906 184.75,24.9844 L184.75,24.875 Z "/><text fill="#000000" font-family="sans-serif" font-size="12" lengthAdjust="spacingAndGlyphs" textLength="112" x="199" y="28.1543">gateway-manager</text><line style="stroke: #A80036; stroke-width: 1.5;" x1="171" x2="313" y1="40" y2="40"/><line style="stroke: #A80036; stroke-width: 1.5;" x1="171" x2="313" y1="48" y2="48"/><!--class queue--><rect fill="#FEFECE" filter="url(#ft79774req77j)" height="48" id="queue" style="stroke: #A80036; stroke-width: 1.5;" width="132" x="6" y="116"/><ellipse cx="21" cy="132" fill="#ADD1B2" rx="11" ry="11" style="stroke: #A80036; stroke-width: 1.0;"/><path d="M19.2969,132.875 L19.2969,135.2969 L23.6563,135.2969 L23.6563,134.4219 C23.6563,133.9375 23.6875,133.7969 23.7969,133.6406 C23.9688,133.3906 24.2344,133.2813 24.5,133.2813 C24.7813,133.2813 25.0625,133.4375 25.2344,133.6875 C25.3125,133.8438 25.3438,133.9844 25.3438,134.4219 L25.3438,137 L17.3438,137 C16.9531,137 16.7188,136.9531 16.5781,136.8281 C16.3594,136.6719 16.2188,136.4219 16.2188,136.1563 C16.2188,135.8594 16.375,135.5938 16.625,135.4219 C16.7813,135.3125 16.9375,135.2969 17.3438,135.2969 L17.5938,135.2969 L17.5938,128.7813 L17.3438,128.7813 C16.9219,128.7813 16.7344,128.75 16.5781,128.6406 C16.3594,128.4688 16.2188,128.2188 16.2188,127.9375 C16.2188,127.6563 16.375,127.3594 16.625,127.2031 C16.7813,127.1094 16.9063,127.0938 17.3438,127.0938 L24.9688,127.0938 L24.9688,129.6406 C24.9688,130.1094 24.9375,130.25 24.8281,130.4219 C24.6563,130.6406 24.3906,130.7813 24.125,130.7813 C23.8438,130.7813 23.5625,130.625 23.3906,130.375 C23.3125,130.2188 23.2813,130.0469 23.2813,129.6406 L23.2813,128.7813 L19.2969,128.7813 L19.2969,131.1875 L20.75,131.1875 L20.75,131.0625 C20.75,130.6094 20.7813,130.4531 20.8906,130.2813 C21.0625,130.0625 21.3281,129.9219 21.5781,129.9219 C22.0313,129.9219 22.3438,130.2344 22.4063,130.7031 C22.4219,130.8594 22.4219,130.9063 22.4219,131.0625 L22.4219,132.9844 C22.4219,133.4375 22.3906,133.5938 22.2656,133.75 C22.1094,133.9688 21.8438,134.1094 21.5938,134.1094 C21.2969,134.1094 21.0156,133.9531 20.8594,133.7031 C20.7813,133.5469 20.75,133.3906 20.75,132.9844 L20.75,132.875 Z "/><text fill="#000000" font-family="sans-serif" font-size="12" lengthAdjust="spacingAndGlyphs" textLength="100" x="35" y="136.1543">queue-manager</text><line style="stroke: #A80036; stroke-width: 1.5;" x1="7" x2="137" y1="148" y2="148"/><line style="stroke: #A80036; stroke-width: 1.5;" x1="7" x2="137" y1="156" y2="156"/><!--link service to domain--><path d="M205.408,439.6784 C207.951,423.6037 208.176,402.1538 206.081,385.131 " fill="none" id="service-domain" style="stroke: #A80036; stroke-width: 1.0;"/><polygon fill="#A80036" points="205.357,380,202.6535,389.4705,206.0555,384.951,210.5751,388.3529,205.357,380" style="stroke: #A80036; stroke-width: 1.0;"/><!--link domain to service--><path d="M183.274,380 C180.843,396.003 180.602,417.4461 182.551,434.528 " fill="none" id="domain-service" style="stroke: #A80036; stroke-width: 1.0; stroke-dasharray: 7.0,7.0;"/><polygon fill="#A80036" points="183.226,439.6784,186.0222,430.2348,182.5761,434.7208,178.0901,431.2747,183.226,439.6784" style="stroke: #A80036; stroke-width: 1.0;"/><!--link transaction to domain--><path d="M297.358,272 C276.657,288.624 248.646,311.118 227.005,328.496 " fill="none" id="transaction-domain" style="stroke: #A80036; stroke-width: 1.0;"/><polygon fill="#A80036" points="223.042,331.678,232.5642,329.1626,226.9409,328.5477,227.5558,322.9244,223.042,331.678" style="stroke: #A80036; stroke-width: 1.0;"/><!--link gateway to domain--><path d="M238.548,56.157 C229.955,113.804 207.623,263.613 198.245,326.524 " fill="none" id="gateway-domain" style="stroke: #A80036; stroke-width: 1.0;"/><polygon fill="#A80036" points="197.485,331.62,202.7684,323.3082,198.2223,326.6747,194.8559,322.1285,197.485,331.62" style="stroke: #A80036; stroke-width: 1.0;"/><!--link queue to domain--><path d="M85.2884,164.309 C107.931,204.027 153.892,284.646 178.163,327.221 " fill="none" id="queue-domain" style="stroke: #A80036; stroke-width: 1.0;"/><polygon fill="#A80036" points="180.728,331.72,179.7447,321.9203,178.2513,327.3765,172.7952,325.8831,180.728,331.72" style="stroke: #A80036; stroke-width: 1.0;"/><!--link transaction to service--><path d="M321.538,272.25 C315.515,299.652 302.927,345.783 281,380 C267.178,401.569 246.615,421.532 228.951,436.4722 " fill="none" id="transaction-service" style="stroke: #A80036; stroke-width: 1.0;"/><polygon fill="#A80036" points="224.997,439.7744,234.4692,437.0766,228.8351,436.5698,229.3418,430.9357,224.997,439.7744" style="stroke: #A80036; stroke-width: 1.0;"/><!--link gateway to service--><path d="M283.063,56.011 C348.021,95.705 463.474,181.531 426,272 C393.164,351.273 306.765,407.5209 249.177,437.6101 " fill="none" id="gateway-service" style="stroke: #A80036; stroke-width: 1.0;"/><polygon fill="#A80036" points="244.736,439.9085,254.5675,439.3236,249.1764,437.61,250.8899,432.2189,244.736,439.9085" style="stroke: #A80036; stroke-width: 1.0;"/><!--link queue to service--><path d="M70.7211,164.223 C69.2621,208.736 70.867,308.03 108,380 C119.499,402.2867 139.308,422.0295 157.019,436.6629 " fill="none" id="queue-service" style="stroke: #A80036; stroke-width: 1.0;"/><polygon fill="#A80036" points="160.996,439.8943,156.5329,431.1147,157.1153,436.7415,151.4885,437.3239,160.996,439.8943" style="stroke: #A80036; stroke-width: 1.0;"/><!--link queue to transaction--><path d="M127.114,164 C167.997,181.062 223.699,204.307 265.755,221.858 " fill="none" id="queue-transaction" style="stroke: #A80036; stroke-width: 1.0;"/><polygon fill="#A80036" points="270.555,223.862,263.7899,216.7043,265.9407,221.9363,260.7087,224.0871,270.555,223.862" style="stroke: #A80036; stroke-width: 1.0;"/><!--link gateway to transaction--><path d="M251.149,56.309 C266.708,95.946 298.256,176.32 314.994,218.962 " fill="none" id="gateway-transaction" style="stroke: #A80036; stroke-width: 1.0;"/><polygon fill="#A80036" points="316.862,223.72,317.2966,213.8807,315.0349,219.0658,309.8498,216.8041,316.862,223.72" style="stroke: #A80036; stroke-width: 1.0;"/><!--link gateway to queue--><path d="M205.113,56 C178.139,72.819 141.526,95.649 113.526,113.107 " fill="none" id="gateway-queue" style="stroke: #A80036; stroke-width: 1.0;"/><polygon fill="#A80036" points="109.109,115.862,118.8624,114.494,113.3517,113.2164,114.6294,107.7057,109.109,115.862" style="stroke: #A80036; stroke-width: 1.0;"/><!--
@startuml
entity "domain-manager" as domain

entity "service-manager"  as service
entity "transaction-manager" as transaction
entity "gateway-manager" as gateway
entity "queue-manager" as queue


service - -> domain
transaction - -> domain
gateway - -> domain
queue - -> domain

transaction - -> service
gateway - -> service 
queue - -> service
domain ..> service

queue - -> transaction
gateway - -> transaction
gateway - -> queue
@enduml

PlantUML version 1.2019.05(Sat Apr 20 16:45:36 UTC 2019)
(GPL source distribution)
Java Runtime: Java(TM) SE Runtime Environment
JVM: Java HotSpot(TM) 64-Bit Server VM
Java Version: 1.7.0_25-b15
Operating System: Linux
Default Encoding: UTF-8
Language: en
Country: US
--></g></svg>