<?xml version="1.0" encoding="UTF-8" standalone="no"?><svg xmlns="http://www.w3.org/2000/svg" xmlns:xlink="http://www.w3.org/1999/xlink" contentScriptType="application/ecmascript" contentStyleType="text/css" height="401px" preserveAspectRatio="none" style="width:347px;height:401px;" version="1.1" viewBox="0 0 347 401" width="347px" zoomAndPan="magnify"><defs><filter height="300%" id="fglhdvw53cu9h" width="300%" x="-1" y="-1"><feGaussianBlur result="blurOut" stdDeviation="2.0"/><feColorMatrix in="blurOut" result="blurOut2" type="matrix" values="0 0 0 0 0 0 0 0 0 0 0 0 0 0 0 0 0 0 .4 0"/><feOffset dx="4.0" dy="4.0" in="blurOut2" result="blurOut3"/><feBlend in="SourceGraphic" in2="blurOut3" mode="normal"/></filter></defs><g><!--class sinstance--><rect fill="#FEFECE" filter="url(#fglhdvw53cu9h)" height="48" id="sinstance" style="stroke: #A80036; stroke-width: 1.5;" width="86" x="6" y="234"/><ellipse cx="21" cy="250" fill="#ADD1B2" rx="11" ry="11" style="stroke: #A80036; stroke-width: 1.0;"/><path d="M19.2969,250.875 L19.2969,253.2969 L23.6563,253.2969 L23.6563,252.4219 C23.6563,251.9375 23.6875,251.7969 23.7969,251.6406 C23.9688,251.3906 24.2344,251.2813 24.5,251.2813 C24.7813,251.2813 25.0625,251.4375 25.2344,251.6875 C25.3125,251.8438 25.3438,251.9844 25.3438,252.4219 L25.3438,255 L17.3438,255 C16.9531,255 16.7188,254.9531 16.5781,254.8281 C16.3594,254.6719 16.2188,254.4219 16.2188,254.1563 C16.2188,253.8594 16.375,253.5938 16.625,253.4219 C16.7813,253.3125 16.9375,253.2969 17.3438,253.2969 L17.5938,253.2969 L17.5938,246.7813 L17.3438,246.7813 C16.9219,246.7813 16.7344,246.75 16.5781,246.6406 C16.3594,246.4688 16.2188,246.2188 16.2188,245.9375 C16.2188,245.6563 16.375,245.3594 16.625,245.2031 C16.7813,245.1094 16.9063,245.0938 17.3438,245.0938 L24.9688,245.0938 L24.9688,247.6406 C24.9688,248.1094 24.9375,248.25 24.8281,248.4219 C24.6563,248.6406 24.3906,248.7813 24.125,248.7813 C23.8438,248.7813 23.5625,248.625 23.3906,248.375 C23.3125,248.2188 23.2813,248.0469 23.2813,247.6406 L23.2813,246.7813 L19.2969,246.7813 L19.2969,249.1875 L20.75,249.1875 L20.75,249.0625 C20.75,248.6094 20.7813,248.4531 20.8906,248.2813 C21.0625,248.0625 21.3281,247.9219 21.5781,247.9219 C22.0313,247.9219 22.3438,248.2344 22.4063,248.7031 C22.4219,248.8594 22.4219,248.9063 22.4219,249.0625 L22.4219,250.9844 C22.4219,251.4375 22.3906,251.5938 22.2656,251.75 C22.1094,251.9688 21.8438,252.1094 21.5938,252.1094 C21.2969,252.1094 21.0156,251.9531 20.8594,251.7031 C20.7813,251.5469 20.75,251.3906 20.75,250.9844 L20.75,250.875 Z "/><text fill="#000000" font-family="sans-serif" font-size="12" lengthAdjust="spacingAndGlyphs" textLength="54" x="35" y="254.1543">instance</text><line style="stroke: #A80036; stroke-width: 1.5;" x1="7" x2="91" y1="266" y2="266"/><line style="stroke: #A80036; stroke-width: 1.5;" x1="7" x2="91" y1="274" y2="274"/><!--class einstance--><rect fill="#FEFECE" filter="url(#fglhdvw53cu9h)" height="48" id="einstance" style="stroke: #A80036; stroke-width: 1.5;" width="86" x="250" y="234"/><ellipse cx="265" cy="250" fill="#ADD1B2" rx="11" ry="11" style="stroke: #A80036; stroke-width: 1.0;"/><path d="M263.2969,250.875 L263.2969,253.2969 L267.6563,253.2969 L267.6563,252.4219 C267.6563,251.9375 267.6875,251.7969 267.7969,251.6406 C267.9688,251.3906 268.2344,251.2813 268.5,251.2813 C268.7813,251.2813 269.0625,251.4375 269.2344,251.6875 C269.3125,251.8438 269.3438,251.9844 269.3438,252.4219 L269.3438,255 L261.3438,255 C260.9531,255 260.7188,254.9531 260.5781,254.8281 C260.3594,254.6719 260.2188,254.4219 260.2188,254.1563 C260.2188,253.8594 260.375,253.5938 260.625,253.4219 C260.7813,253.3125 260.9375,253.2969 261.3438,253.2969 L261.5938,253.2969 L261.5938,246.7813 L261.3438,246.7813 C260.9219,246.7813 260.7344,246.75 260.5781,246.6406 C260.3594,246.4688 260.2188,246.2188 260.2188,245.9375 C260.2188,245.6563 260.375,245.3594 260.625,245.2031 C260.7813,245.1094 260.9063,245.0938 261.3438,245.0938 L268.9688,245.0938 L268.9688,247.6406 C268.9688,248.1094 268.9375,248.25 268.8281,248.4219 C268.6563,248.6406 268.3906,248.7813 268.125,248.7813 C267.8438,248.7813 267.5625,248.625 267.3906,248.375 C267.3125,248.2188 267.2813,248.0469 267.2813,247.6406 L267.2813,246.7813 L263.2969,246.7813 L263.2969,249.1875 L264.75,249.1875 L264.75,249.0625 C264.75,248.6094 264.7813,248.4531 264.8906,248.2813 C265.0625,248.0625 265.3281,247.9219 265.5781,247.9219 C266.0313,247.9219 266.3438,248.2344 266.4063,248.7031 C266.4219,248.8594 266.4219,248.9063 266.4219,249.0625 L266.4219,250.9844 C266.4219,251.4375 266.3906,251.5938 266.2656,251.75 C266.1094,251.9688 265.8438,252.1094 265.5938,252.1094 C265.2969,252.1094 265.0156,251.9531 264.8594,251.7031 C264.7813,251.5469 264.75,251.3906 264.75,250.9844 L264.75,250.875 Z "/><text fill="#000000" font-family="sans-serif" font-size="12" lengthAdjust="spacingAndGlyphs" textLength="54" x="279" y="254.1543">instance</text><line style="stroke: #A80036; stroke-width: 1.5;" x1="251" x2="335" y1="266" y2="266"/><line style="stroke: #A80036; stroke-width: 1.5;" x1="251" x2="335" y1="274" y2="274"/><!--class service--><rect fill="#FEFECE" filter="url(#fglhdvw53cu9h)" height="48" id="service" style="stroke: #A80036; stroke-width: 1.5;" width="76" x="11" y="342"/><ellipse cx="26" cy="358" fill="#ADD1B2" rx="11" ry="11" style="stroke: #A80036; stroke-width: 1.0;"/><path d="M24.2969,358.875 L24.2969,361.2969 L28.6563,361.2969 L28.6563,360.4219 C28.6563,359.9375 28.6875,359.7969 28.7969,359.6406 C28.9688,359.3906 29.2344,359.2813 29.5,359.2813 C29.7813,359.2813 30.0625,359.4375 30.2344,359.6875 C30.3125,359.8438 30.3438,359.9844 30.3438,360.4219 L30.3438,363 L22.3438,363 C21.9531,363 21.7188,362.9531 21.5781,362.8281 C21.3594,362.6719 21.2188,362.4219 21.2188,362.1563 C21.2188,361.8594 21.375,361.5938 21.625,361.4219 C21.7813,361.3125 21.9375,361.2969 22.3438,361.2969 L22.5938,361.2969 L22.5938,354.7813 L22.3438,354.7813 C21.9219,354.7813 21.7344,354.75 21.5781,354.6406 C21.3594,354.4688 21.2188,354.2188 21.2188,353.9375 C21.2188,353.6563 21.375,353.3594 21.625,353.2031 C21.7813,353.1094 21.9063,353.0938 22.3438,353.0938 L29.9688,353.0938 L29.9688,355.6406 C29.9688,356.1094 29.9375,356.25 29.8281,356.4219 C29.6563,356.6406 29.3906,356.7813 29.125,356.7813 C28.8438,356.7813 28.5625,356.625 28.3906,356.375 C28.3125,356.2188 28.2813,356.0469 28.2813,355.6406 L28.2813,354.7813 L24.2969,354.7813 L24.2969,357.1875 L25.75,357.1875 L25.75,357.0625 C25.75,356.6094 25.7813,356.4531 25.8906,356.2813 C26.0625,356.0625 26.3281,355.9219 26.5781,355.9219 C27.0313,355.9219 27.3438,356.2344 27.4063,356.7031 C27.4219,356.8594 27.4219,356.9063 27.4219,357.0625 L27.4219,358.9844 C27.4219,359.4375 27.3906,359.5938 27.2656,359.75 C27.1094,359.9688 26.8438,360.1094 26.5938,360.1094 C26.2969,360.1094 26.0156,359.9531 25.8594,359.7031 C25.7813,359.5469 25.75,359.3906 25.75,358.9844 L25.75,358.875 Z "/><text fill="#000000" font-family="sans-serif" font-size="12" lengthAdjust="spacingAndGlyphs" textLength="44" x="40" y="362.1543">service</text><line style="stroke: #A80036; stroke-width: 1.5;" x1="12" x2="86" y1="374" y2="374"/><line style="stroke: #A80036; stroke-width: 1.5;" x1="12" x2="86" y1="382" y2="382"/><!--class group--><rect fill="#FEFECE" filter="url(#fglhdvw53cu9h)" height="48" id="group" style="stroke: #A80036; stroke-width: 1.5;" width="69" x="136.5" y="18"/><ellipse cx="151.5" cy="34" fill="#ADD1B2" rx="11" ry="11" style="stroke: #A80036; stroke-width: 1.0;"/><path d="M149.7969,34.875 L149.7969,37.2969 L154.1563,37.2969 L154.1563,36.4219 C154.1563,35.9375 154.1875,35.7969 154.2969,35.6406 C154.4688,35.3906 154.7344,35.2813 155,35.2813 C155.2813,35.2813 155.5625,35.4375 155.7344,35.6875 C155.8125,35.8438 155.8438,35.9844 155.8438,36.4219 L155.8438,39 L147.8438,39 C147.4531,39 147.2188,38.9531 147.0781,38.8281 C146.8594,38.6719 146.7188,38.4219 146.7188,38.1563 C146.7188,37.8594 146.875,37.5938 147.125,37.4219 C147.2813,37.3125 147.4375,37.2969 147.8438,37.2969 L148.0938,37.2969 L148.0938,30.7813 L147.8438,30.7813 C147.4219,30.7813 147.2344,30.75 147.0781,30.6406 C146.8594,30.4688 146.7188,30.2188 146.7188,29.9375 C146.7188,29.6563 146.875,29.3594 147.125,29.2031 C147.2813,29.1094 147.4063,29.0938 147.8438,29.0938 L155.4688,29.0938 L155.4688,31.6406 C155.4688,32.1094 155.4375,32.25 155.3281,32.4219 C155.1563,32.6406 154.8906,32.7813 154.625,32.7813 C154.3438,32.7813 154.0625,32.625 153.8906,32.375 C153.8125,32.2188 153.7813,32.0469 153.7813,31.6406 L153.7813,30.7813 L149.7969,30.7813 L149.7969,33.1875 L151.25,33.1875 L151.25,33.0625 C151.25,32.6094 151.2813,32.4531 151.3906,32.2813 C151.5625,32.0625 151.8281,31.9219 152.0781,31.9219 C152.5313,31.9219 152.8438,32.2344 152.9063,32.7031 C152.9219,32.8594 152.9219,32.9063 152.9219,33.0625 L152.9219,34.9844 C152.9219,35.4375 152.8906,35.5938 152.7656,35.75 C152.6094,35.9688 152.3438,36.1094 152.0938,36.1094 C151.7969,36.1094 151.5156,35.9531 151.3594,35.7031 C151.2813,35.5469 151.25,35.3906 151.25,34.9844 L151.25,34.875 Z "/><text fill="#000000" font-family="sans-serif" font-size="12" lengthAdjust="spacingAndGlyphs" textLength="37" x="165.5" y="38.1543">group</text><line style="stroke: #A80036; stroke-width: 1.5;" x1="137.5" x2="204.5" y1="50" y2="50"/><line style="stroke: #A80036; stroke-width: 1.5;" x1="137.5" x2="204.5" y1="58" y2="58"/><!--class server--><rect fill="#FEFECE" filter="url(#fglhdvw53cu9h)" height="48" id="server" style="stroke: #A80036; stroke-width: 1.5;" width="71" x="46.5" y="126"/><ellipse cx="61.5" cy="142" fill="#ADD1B2" rx="11" ry="11" style="stroke: #A80036; stroke-width: 1.0;"/><path d="M59.7969,142.875 L59.7969,145.2969 L64.1563,145.2969 L64.1563,144.4219 C64.1563,143.9375 64.1875,143.7969 64.2969,143.6406 C64.4688,143.3906 64.7344,143.2813 65,143.2813 C65.2813,143.2813 65.5625,143.4375 65.7344,143.6875 C65.8125,143.8438 65.8438,143.9844 65.8438,144.4219 L65.8438,147 L57.8438,147 C57.4531,147 57.2188,146.9531 57.0781,146.8281 C56.8594,146.6719 56.7188,146.4219 56.7188,146.1563 C56.7188,145.8594 56.875,145.5938 57.125,145.4219 C57.2813,145.3125 57.4375,145.2969 57.8438,145.2969 L58.0938,145.2969 L58.0938,138.7813 L57.8438,138.7813 C57.4219,138.7813 57.2344,138.75 57.0781,138.6406 C56.8594,138.4688 56.7188,138.2188 56.7188,137.9375 C56.7188,137.6563 56.875,137.3594 57.125,137.2031 C57.2813,137.1094 57.4063,137.0938 57.8438,137.0938 L65.4688,137.0938 L65.4688,139.6406 C65.4688,140.1094 65.4375,140.25 65.3281,140.4219 C65.1563,140.6406 64.8906,140.7813 64.625,140.7813 C64.3438,140.7813 64.0625,140.625 63.8906,140.375 C63.8125,140.2188 63.7813,140.0469 63.7813,139.6406 L63.7813,138.7813 L59.7969,138.7813 L59.7969,141.1875 L61.25,141.1875 L61.25,141.0625 C61.25,140.6094 61.2813,140.4531 61.3906,140.2813 C61.5625,140.0625 61.8281,139.9219 62.0781,139.9219 C62.5313,139.9219 62.8438,140.2344 62.9063,140.7031 C62.9219,140.8594 62.9219,140.9063 62.9219,141.0625 L62.9219,142.9844 C62.9219,143.4375 62.8906,143.5938 62.7656,143.75 C62.6094,143.9688 62.3438,144.1094 62.0938,144.1094 C61.7969,144.1094 61.5156,143.9531 61.3594,143.7031 C61.2813,143.5469 61.25,143.3906 61.25,142.9844 L61.25,142.875 Z "/><text fill="#000000" font-family="sans-serif" font-size="12" lengthAdjust="spacingAndGlyphs" textLength="39" x="75.5" y="146.1543">server</text><line style="stroke: #A80036; stroke-width: 1.5;" x1="47.5" x2="116.5" y1="158" y2="158"/><line style="stroke: #A80036; stroke-width: 1.5;" x1="47.5" x2="116.5" y1="166" y2="166"/><!--class executable--><rect fill="#FEFECE" filter="url(#fglhdvw53cu9h)" height="48" id="executable" style="stroke: #A80036; stroke-width: 1.5;" width="101" x="224.5" y="126"/><ellipse cx="239.5" cy="142" fill="#ADD1B2" rx="11" ry="11" style="stroke: #A80036; stroke-width: 1.0;"/><path d="M237.7969,142.875 L237.7969,145.2969 L242.1563,145.2969 L242.1563,144.4219 C242.1563,143.9375 242.1875,143.7969 242.2969,143.6406 C242.4688,143.3906 242.7344,143.2813 243,143.2813 C243.2813,143.2813 243.5625,143.4375 243.7344,143.6875 C243.8125,143.8438 243.8438,143.9844 243.8438,144.4219 L243.8438,147 L235.8438,147 C235.4531,147 235.2188,146.9531 235.0781,146.8281 C234.8594,146.6719 234.7188,146.4219 234.7188,146.1563 C234.7188,145.8594 234.875,145.5938 235.125,145.4219 C235.2813,145.3125 235.4375,145.2969 235.8438,145.2969 L236.0938,145.2969 L236.0938,138.7813 L235.8438,138.7813 C235.4219,138.7813 235.2344,138.75 235.0781,138.6406 C234.8594,138.4688 234.7188,138.2188 234.7188,137.9375 C234.7188,137.6563 234.875,137.3594 235.125,137.2031 C235.2813,137.1094 235.4063,137.0938 235.8438,137.0938 L243.4688,137.0938 L243.4688,139.6406 C243.4688,140.1094 243.4375,140.25 243.3281,140.4219 C243.1563,140.6406 242.8906,140.7813 242.625,140.7813 C242.3438,140.7813 242.0625,140.625 241.8906,140.375 C241.8125,140.2188 241.7813,140.0469 241.7813,139.6406 L241.7813,138.7813 L237.7969,138.7813 L237.7969,141.1875 L239.25,141.1875 L239.25,141.0625 C239.25,140.6094 239.2813,140.4531 239.3906,140.2813 C239.5625,140.0625 239.8281,139.9219 240.0781,139.9219 C240.5313,139.9219 240.8438,140.2344 240.9063,140.7031 C240.9219,140.8594 240.9219,140.9063 240.9219,141.0625 L240.9219,142.9844 C240.9219,143.4375 240.8906,143.5938 240.7656,143.75 C240.6094,143.9688 240.3438,144.1094 240.0938,144.1094 C239.7969,144.1094 239.5156,143.9531 239.3594,143.7031 C239.2813,143.5469 239.25,143.3906 239.25,142.9844 L239.25,142.875 Z "/><text fill="#000000" font-family="sans-serif" font-size="12" lengthAdjust="spacingAndGlyphs" textLength="69" x="253.5" y="146.1543">executable</text><line style="stroke: #A80036; stroke-width: 1.5;" x1="225.5" x2="324.5" y1="158" y2="158"/><line style="stroke: #A80036; stroke-width: 1.5;" x1="225.5" x2="324.5" y1="166" y2="166"/><!--class resource--><rect fill="#FEFECE" filter="url(#fglhdvw53cu9h)" height="48" id="resource" style="stroke: #A80036; stroke-width: 1.5;" width="88" x="127" y="234"/><ellipse cx="142" cy="250" fill="#ADD1B2" rx="11" ry="11" style="stroke: #A80036; stroke-width: 1.0;"/><path d="M140.2969,250.875 L140.2969,253.2969 L144.6563,253.2969 L144.6563,252.4219 C144.6563,251.9375 144.6875,251.7969 144.7969,251.6406 C144.9688,251.3906 145.2344,251.2813 145.5,251.2813 C145.7813,251.2813 146.0625,251.4375 146.2344,251.6875 C146.3125,251.8438 146.3438,251.9844 146.3438,252.4219 L146.3438,255 L138.3438,255 C137.9531,255 137.7188,254.9531 137.5781,254.8281 C137.3594,254.6719 137.2188,254.4219 137.2188,254.1563 C137.2188,253.8594 137.375,253.5938 137.625,253.4219 C137.7813,253.3125 137.9375,253.2969 138.3438,253.2969 L138.5938,253.2969 L138.5938,246.7813 L138.3438,246.7813 C137.9219,246.7813 137.7344,246.75 137.5781,246.6406 C137.3594,246.4688 137.2188,246.2188 137.2188,245.9375 C137.2188,245.6563 137.375,245.3594 137.625,245.2031 C137.7813,245.1094 137.9063,245.0938 138.3438,245.0938 L145.9688,245.0938 L145.9688,247.6406 C145.9688,248.1094 145.9375,248.25 145.8281,248.4219 C145.6563,248.6406 145.3906,248.7813 145.125,248.7813 C144.8438,248.7813 144.5625,248.625 144.3906,248.375 C144.3125,248.2188 144.2813,248.0469 144.2813,247.6406 L144.2813,246.7813 L140.2969,246.7813 L140.2969,249.1875 L141.75,249.1875 L141.75,249.0625 C141.75,248.6094 141.7813,248.4531 141.8906,248.2813 C142.0625,248.0625 142.3281,247.9219 142.5781,247.9219 C143.0313,247.9219 143.3438,248.2344 143.4063,248.7031 C143.4219,248.8594 143.4219,248.9063 143.4219,249.0625 L143.4219,250.9844 C143.4219,251.4375 143.3906,251.5938 143.2656,251.75 C143.1094,251.9688 142.8438,252.1094 142.5938,252.1094 C142.2969,252.1094 142.0156,251.9531 141.8594,251.7031 C141.7813,251.5469 141.75,251.3906 141.75,250.9844 L141.75,250.875 Z "/><text fill="#000000" font-family="sans-serif" font-size="12" lengthAdjust="spacingAndGlyphs" textLength="56" x="156" y="254.1543">resource</text><line style="stroke: #A80036; stroke-width: 1.5;" x1="128" x2="214" y1="266" y2="266"/><line style="stroke: #A80036; stroke-width: 1.5;" x1="128" x2="214" y1="274" y2="274"/><!--link group to group--><path d="M205.687,22.522 C223.95,19.371 240.5,25.863 240.5,42 C240.5,56.624 226.908,63.327 210.766,62.11 " fill="none" id="group-group" style="stroke: #A80036; stroke-width: 1.0;"/><polygon fill="#A80036" points="205.687,61.478,214.123,66.5607,210.6486,62.0966,215.1127,58.6222,205.687,61.478" style="stroke: #A80036; stroke-width: 1.0;"/><text fill="#000000" font-family="sans-serif" font-size="13" lengthAdjust="spacingAndGlyphs" textLength="23" x="213.6254" y="14.9635">0..*</text><text fill="#000000" font-family="sans-serif" font-size="13" lengthAdjust="spacingAndGlyphs" textLength="23" x="213.6254" y="60.615">0..*</text><!--link group to resource--><path d="M171,79.544 C171,123.676 171,196.593 171,233.72 " fill="none" id="group-resource" style="stroke: #A80036; stroke-width: 1.0;"/><polygon fill="#FFFFFF" points="171,66.309,167,72.309,171,78.309,175,72.309,171,66.309" style="stroke: #A80036; stroke-width: 1.0;"/><text fill="#000000" font-family="sans-serif" font-size="13" lengthAdjust="spacingAndGlyphs" textLength="8" x="162.025" y="86.1455">1</text><text fill="#000000" font-family="sans-serif" font-size="13" lengthAdjust="spacingAndGlyphs" textLength="23" x="145.1969" y="223.0567">0..*</text><!--link group to server--><path d="M143.222,76.084 C129.713,92.174 113.798,111.128 101.5813,125.678 " fill="none" id="group-server" style="stroke: #A80036; stroke-width: 1.0;"/><polygon fill="#FFFFFF" points="151.688,66,144.7667,68.0237,143.9726,75.1909,150.894,73.1673,151.688,66" style="stroke: #A80036; stroke-width: 1.0;"/><text fill="#000000" font-family="sans-serif" font-size="13" lengthAdjust="spacingAndGlyphs" textLength="23" x="120.7924" y="86.1558">0..*</text><text fill="#000000" font-family="sans-serif" font-size="13" lengthAdjust="spacingAndGlyphs" textLength="23" x="80.5511" y="115.0045">0..*</text><!--link group to executable--><path d="M203.01,75.626 C218.891,91.812 237.707,110.989 252.118,125.678 " fill="none" id="group-executable" style="stroke: #A80036; stroke-width: 1.0;"/><polygon fill="#FFFFFF" points="193.566,66,194.9131,73.0842,201.9705,74.5653,200.6233,67.4812,193.566,66" style="stroke: #A80036; stroke-width: 1.0;"/><text fill="#000000" font-family="sans-serif" font-size="13" lengthAdjust="spacingAndGlyphs" textLength="23" x="202.2954" y="86.1558">0..*</text><text fill="#000000" font-family="sans-serif" font-size="13" lengthAdjust="spacingAndGlyphs" textLength="23" x="220.7374" y="115.0045">0..*</text><!--link server to sinstance--><path d="M70.8331,186.869 C66.0213,202.325 60.5315,219.959 56.2605,233.678 " fill="none" id="server-sinstance" style="stroke: #A80036; stroke-width: 1.0;"/><polygon fill="#FFFFFF" points="74.8395,174,69.2368,178.5398,71.2725,185.4576,76.8752,180.9178,74.8395,174" style="stroke: #A80036; stroke-width: 1.0;"/><text fill="#000000" font-family="sans-serif" font-size="13" lengthAdjust="spacingAndGlyphs" textLength="8" x="63.9796" y="194.1558">1</text><text fill="#000000" font-family="sans-serif" font-size="13" lengthAdjust="spacingAndGlyphs" textLength="23" x="32.2271" y="223.0045">0..*</text><!--link server to resource--><path d="M109.778,184.084 C123.287,200.174 139.202,219.128 151.419,233.678 " fill="none" id="server-resource" style="stroke: #A80036; stroke-width: 1.0;"/><polygon fill="#FFFFFF" points="101.3117,174,102.1057,181.1673,109.0271,183.1909,108.233,176.0237,101.3117,174" style="stroke: #A80036; stroke-width: 1.0;"/><text fill="#000000" font-family="sans-serif" font-size="13" lengthAdjust="spacingAndGlyphs" textLength="8" x="97.2353" y="194.1558">1</text><text fill="#000000" font-family="sans-serif" font-size="13" lengthAdjust="spacingAndGlyphs" textLength="23" x="120.843" y="223.0045">0..*</text><!--link sinstance to service--><path d="M49,295.3383 C49,310.6813 49,328.098 49,341.6784 " fill="none" id="sinstance-service" style="stroke: #A80036; stroke-width: 1.0;"/><polygon fill="#FFFFFF" points="49,282,45,288,49,294,53,288,49,282" style="stroke: #A80036; stroke-width: 1.0;"/><text fill="#000000" font-family="sans-serif" font-size="13" lengthAdjust="spacingAndGlyphs" textLength="8" x="39.975" y="302.1558">1</text><text fill="#000000" font-family="sans-serif" font-size="13" lengthAdjust="spacingAndGlyphs" textLength="23" x="23.1969" y="331.005">0..*</text><!--link executable to einstance--><path d="M281.091,186.869 C283.716,202.325 286.71,219.959 289.04,233.678 " fill="none" id="executable-einstance" style="stroke: #A80036; stroke-width: 1.0;"/><polygon fill="#FFFFFF" points="278.906,174,275.9673,180.5851,280.9156,185.8305,283.8543,179.2454,278.906,174" style="stroke: #A80036; stroke-width: 1.0;"/><text fill="#000000" font-family="sans-serif" font-size="13" lengthAdjust="spacingAndGlyphs" textLength="8" x="270.8819" y="194.1558">1</text><text fill="#000000" font-family="sans-serif" font-size="13" lengthAdjust="spacingAndGlyphs" textLength="23" x="262.2716" y="223.0045">0..*</text><!--link executable to resource--><path d="M242.99,183.626 C227.109,199.812 208.293,218.989 193.882,233.678 " fill="none" id="executable-resource" style="stroke: #A80036; stroke-width: 1.0;"/><polygon fill="#FFFFFF" points="252.434,174,245.3767,175.4812,244.0295,182.5653,251.0869,181.0842,252.434,174" style="stroke: #A80036; stroke-width: 1.0;"/><text fill="#000000" font-family="sans-serif" font-size="13" lengthAdjust="spacingAndGlyphs" textLength="8" x="237.6265" y="194.1558">1</text><text fill="#000000" font-family="sans-serif" font-size="13" lengthAdjust="spacingAndGlyphs" textLength="23" x="173.6564" y="223.0045">0..*</text><!--
@startuml
entity "instance" as sinstance
entity "instance" as einstance
entity service
entity group
entity server
entity executable
entity resource

group "0..*"->"0..*"group
group  "1" o- - "0..*" resource
group  "0..*" o- - "0..*" server
group  "0..*" o- - "0..*" executable

server "1" o- - "0..*" sinstance
server "1" o- - "0..*" resource
sinstance "1" o- - "0..*" service

executable "1" o- - "0..*" einstance
executable "1" o- - "0..*" resource
@enduml

PlantUML version 1.2019.03(Sun Mar 10 11:04:44 UTC 2019)
(GPL source distribution)
Java Runtime: Java(TM) SE Runtime Environment
JVM: Java HotSpot(TM) 64-Bit Server VM
Java Version: 1.7.0_25-b15
Operating System: Linux
Default Encoding: UTF-8
Language: en
Country: US
--></g></svg>