<?xml version="1.0" encoding="utf-8"?>
<!-- Generator: Adobe Illustrator 23.0.3, SVG Export Plug-In . SVG Version: 6.00 Build 0)  -->
<svg version="1.1" id="Layer_1" xmlns="http://www.w3.org/2000/svg" xmlns:xlink="http://www.w3.org/1999/xlink" x="0px" y="0px"
	 viewBox="0 0 500 500" style="enable-background:new 0 0 500 500;" xml:space="preserve">
<path d="M479.7,298.2H20.3c-6.9,0-12.6,5.6-12.6,12.6v109c0,6.9,5.6,12.6,12.6,12.6h459.5c6.9,0,12.6-5.6,12.6-12.6v-109
	C492.3,303.9,486.7,298.2,479.7,298.2z M452.7,398.6c0,4.2-4.7,7.7-10.5,7.7H57.8c-5.8,0-10.5-3.4-10.5-7.7V332
	c0-4.2,4.7-7.7,10.5-7.7h384.4c5.8,0,10.5,3.4,10.5,7.7V398.6z"/>
<path d="M397.2,391.2H102.8c-9,0-16.2-7.3-16.2-16.2v-17.4c0-9,7.3-16.2,16.2-16.2h294.3c9,0,16.2,7.3,16.2,16.2V375
	C413.4,384,406.1,391.2,397.2,391.2z"/>
<g>
	<path d="M398.1,87.6v210.7H101.9V87.6H398.1 M407.5,61.6H92.5c-9.1,0-16.5,7.4-16.5,16.5v229.6c0,9.1,7.4,16.5,16.5,16.5h315.1
		c9.1,0,16.5-7.4,16.5-16.5V78.2C424.1,69,416.7,61.6,407.5,61.6L407.5,61.6z"/>
</g>
<g>
	<path d="M362.5,109.4H137.5c-7.9,0-14.2,6.4-14.2,14.2v4.7c0,7.9,6.4,14.2,14.2,14.2h225.1c7.9,0,14.2-6.4,14.2-14.2v-4.7
		C376.8,115.8,370.4,109.4,362.5,109.4L362.5,109.4z"/>
</g>
<g>
	<path d="M362.5,176.4H137.5c-7.9,0-14.2,6.4-14.2,14.2v4.7c0,7.9,6.4,14.2,14.2,14.2h225.1c7.9,0,14.2-6.4,14.2-14.2v-4.7
		C376.8,182.7,370.4,176.4,362.5,176.4L362.5,176.4z"/>
</g>
<g>
	<path d="M362.5,243.3H137.5c-7.9,0-14.2,6.4-14.2,14.2v4.7c0,7.9,6.4,14.2,14.2,14.2h225.1c7.9,0,14.2-6.4,14.2-14.2v-4.7
		C376.8,249.7,370.4,243.3,362.5,243.3L362.5,243.3z"/>
</g>
</svg>
