<?xml version="1.0" encoding="utf-8"?>
<!-- Generator: Adobe Illustrator 23.0.3, SVG Export Plug-In . SVG Version: 6.00 Build 0)  -->
<svg version="1.1" id="Layer_1" xmlns="http://www.w3.org/2000/svg" xmlns:xlink="http://www.w3.org/1999/xlink" x="0px" y="0px"
	 viewBox="0 0 500 500" style="enable-background:new 0 0 500 500;" xml:space="preserve">
<g>
	<g>
		<path d="M88.3,442.3l-20.8-18.5c-4.7-4.2-5.1-11.5-0.8-16.2L296.2,160c4.2-4.5,11.2-4.9,15.8-0.8l9.9,8.8
			c4.6,4.1,5.1,11.1,1.1,15.8L104.4,441.2C100.3,446,93,446.5,88.3,442.3z"/>
	</g>
	<g>
		<path d="M331.8,146.9c58.5,51.9,96.5,116.4,111.6,180c23.6-77.5,7.9-175.3-60.2-235.7S214,24.9,139.8,57.5
			C204.8,64.9,273.3,95,331.8,146.9z"/>
	</g>
</g>
</svg>
