<?xml version="1.0" encoding="utf-8"?>
<!-- Generator: Adobe Illustrator 23.0.3, SVG Export Plug-In . SVG Version: 6.00 Build 0)  -->
<svg version="1.1" id="Lager_1" xmlns="http://www.w3.org/2000/svg" xmlns:xlink="http://www.w3.org/1999/xlink" x="0px" y="0px"
	 viewBox="0 0 295.3 197.3" style="enable-background:new 0 0 295.3 197.3;" xml:space="preserve">
<polygon points="156.1,70.5 149.1,74.5 146.8,75.9 142.1,73.2 142.1,67.8 144.5,66.5 151.5,62.5 192.4,38.8 174.3,28.4 156.7,38.6 
	147.4,43.9 125.2,56.7 125.2,83 147.9,96.1 170.1,83.3 179.4,77.9 179.4,88.6 179.4,88.7 147.9,106.9 115.9,88.4 115.9,51.4 165,23 
	147.4,12.9 98.3,41.2 98.3,98.5 115.9,108.7 115.9,108.7 147.9,127.2 179.4,109 197,98.8 197,78.5 197,78.4 197,46.9 "/>
<g>
	<path d="M31.3,182.7c-2.7-1.4-4.8-3.4-6.4-6c-1.5-2.6-2.3-5.5-2.3-8.7c0-3.2,0.8-6.1,2.3-8.7c1.5-2.5,3.6-4.5,6.3-6
		c2.7-1.4,5.8-2.2,9.2-2.2c3.2,0,6.1,0.7,8.5,2s4.3,3.2,5.5,5.7l-5.9,3.5c-0.9-1.5-2.1-2.7-3.5-3.4c-1.4-0.8-3-1.1-4.7-1.1
		c-2.9,0-5.3,0.9-7.2,2.8c-1.9,1.9-2.8,4.4-2.8,7.5c0,3.1,0.9,5.6,2.8,7.5c1.9,1.9,4.3,2.8,7.2,2.8c1.7,0,3.2-0.4,4.7-1.1
		c1.4-0.8,2.6-1.9,3.5-3.4l5.9,3.5c-1.3,2.5-3.1,4.4-5.6,5.7c-2.4,1.3-5.3,2-8.5,2C37,184.8,34,184.1,31.3,182.7z"/>
	<path d="M95.9,154.6c2.6,2.3,3.9,5.8,3.9,10.5v19.3h-7.3v-4c-0.9,1.4-2.3,2.5-4,3.3c-1.7,0.8-3.9,1.1-6.3,1.1
		c-2.5,0-4.6-0.4-6.5-1.3c-1.9-0.8-3.3-2-4.3-3.5c-1-1.5-1.5-3.2-1.5-5.1c0-3,1.1-5.3,3.3-7.1c2.2-1.8,5.7-2.7,10.4-2.7h8.5v-0.5
		c0-2.3-0.7-4.1-2.1-5.3c-1.4-1.2-3.4-1.9-6.1-1.9c-1.8,0-3.7,0.3-5.5,0.9c-1.8,0.6-3.3,1.4-4.5,2.4l-3-5.6c1.7-1.3,3.8-2.3,6.2-3
		c2.4-0.7,5-1,7.7-1C89.6,151.1,93.4,152.3,95.9,154.6z M88.9,177.9c1.5-0.9,2.6-2.1,3.2-3.8v-3.8h-8c-4.4,0-6.7,1.5-6.7,4.4
		c0,1.4,0.6,2.5,1.7,3.3c1.1,0.8,2.7,1.2,4.6,1.2C85.7,179.2,87.4,178.8,88.9,177.9z"/>
	<path d="M123,183.8c-2.6-0.7-4.6-1.6-6.1-2.7l3-5.9c1.5,1,3.3,1.8,5.3,2.4c2.1,0.6,4.1,0.9,6.1,0.9c4.6,0,6.9-1.2,6.9-3.6
		c0-1.1-0.6-2-1.8-2.4c-1.2-0.5-3.1-0.9-5.6-1.3c-2.7-0.4-4.9-0.9-6.6-1.4c-1.7-0.5-3.2-1.5-4.4-2.8c-1.3-1.3-1.9-3.2-1.9-5.6
		c0-3.1,1.3-5.6,3.9-7.5c2.6-1.9,6.1-2.8,10.6-2.8c2.3,0,4.5,0.3,6.8,0.8c2.3,0.5,4.1,1.2,5.6,2.1l-3,5.9c-2.8-1.6-5.9-2.5-9.4-2.5
		c-2.3,0-4,0.3-5.1,1c-1.2,0.7-1.8,1.6-1.8,2.7c0,1.2,0.6,2.1,1.9,2.6c1.3,0.5,3.2,1,5.8,1.4c2.6,0.4,4.8,0.9,6.5,1.4
		c1.7,0.5,3.1,1.4,4.3,2.7s1.8,3.1,1.8,5.4c0,3.1-1.3,5.5-4,7.4c-2.7,1.9-6.3,2.8-10.9,2.8C128.2,184.8,125.6,184.5,123,183.8z"/>
	<path d="M195.4,151.5v32.9H188v-4.2c-1.2,1.5-2.8,2.6-4.6,3.4c-1.8,0.8-3.8,1.2-6,1.2c-4.4,0-7.9-1.2-10.4-3.7
		c-2.5-2.4-3.8-6.1-3.8-10.9v-18.8h7.7v17.8c0,3,0.7,5.2,2,6.6c1.3,1.5,3.2,2.2,5.7,2.2c2.8,0,4.9-0.9,6.6-2.6
		c1.6-1.7,2.4-4.2,2.4-7.4v-16.6L195.4,151.5L195.4,151.5z"/>
	<path d="M240.2,154.6c2.6,2.3,3.9,5.8,3.9,10.5v19.3h-7.3v-4c-0.9,1.4-2.3,2.5-4,3.3c-1.7,0.8-3.9,1.1-6.3,1.1s-4.6-0.4-6.5-1.3
		c-1.9-0.8-3.3-2-4.3-3.5c-1-1.5-1.5-3.2-1.5-5.1c0-3,1.1-5.3,3.3-7.1c2.2-1.8,5.7-2.7,10.4-2.7h8.5v-0.5c0-2.3-0.7-4.1-2.1-5.3
		c-1.4-1.2-3.4-1.9-6.1-1.9c-1.9,0-3.7,0.3-5.5,0.9c-1.8,0.6-3.3,1.4-4.5,2.4l-3-5.6c1.7-1.3,3.8-2.3,6.2-3c2.4-0.7,5-1,7.7-1
		C234,151.1,237.7,152.3,240.2,154.6z M233.2,177.9c1.5-0.9,2.6-2.1,3.2-3.8v-3.8h-8c-4.4,0-6.7,1.5-6.7,4.4c0,1.4,0.6,2.5,1.7,3.3
		c1.1,0.8,2.7,1.2,4.6,1.2C230,179.2,231.7,178.8,233.2,177.9z"/>
	<path d="M265,138.6h7.7v45.8H265V138.6z"/>
</g>
</svg>
