<?xml version="1.0" encoding="utf-8"?>
<!-- Generator: Adobe Illustrator 16.0.0, SVG Export Plug-In . SVG Version: 6.00 Build 0)  -->
<!DOCTYPE svg PUBLIC "-//W3C//DTD SVG 1.1//EN" "http://www.w3.org/Graphics/SVG/1.1/DTD/svg11.dtd">
<svg version="1.1" id="Lager_1" xmlns="http://www.w3.org/2000/svg" xmlns:xlink="http://www.w3.org/1999/xlink" x="0px" y="0px"
	 width="414.667px" height="146.667px" viewBox="0 0 414.667 146.667" enable-background="new 0 0 414.667 146.667"
	 xml:space="preserve">
<polygon points="79.733,74.712 73.47,78.325 71.382,79.531 67.209,77.119 67.207,72.3 69.294,71.094 75.557,67.48 112.281,46.277 
	96.066,36.915 80.271,46.034 71.923,50.855 52.009,62.354 52.009,85.898 72.396,97.669 92.312,86.169 100.661,81.348 
	100.661,90.931 100.661,90.993 72.396,107.309 43.659,90.718 43.659,57.53 87.719,32.095 71.923,22.975 27.865,48.413 
	27.865,99.835 43.659,108.953 43.659,108.953 72.396,125.547 100.661,109.228 116.455,100.108 116.455,81.873 116.455,81.776 
	116.455,53.51 "/>
<g>
	<path d="M145.438,91.642c-2.718-1.44-4.836-3.445-6.359-6.018c-1.523-2.572-2.282-5.486-2.282-8.735
		c0-3.25,0.759-6.151,2.282-8.704c1.523-2.551,3.633-4.546,6.329-5.986c2.692-1.441,5.771-2.162,9.229-2.162
		c3.249,0,6.101,0.658,8.55,1.975c2.449,1.317,4.288,3.209,5.525,5.68l-5.928,3.457c-0.947-1.523-2.13-2.667-3.549-3.426
		c-1.419-0.761-2.975-1.143-4.662-1.143c-2.88,0-5.266,0.937-7.158,2.81c-1.895,1.874-2.842,4.372-2.842,7.5
		c0,3.128,0.937,5.626,2.81,7.5c1.874,1.873,4.27,2.809,7.19,2.809c1.688,0,3.243-0.38,4.662-1.143
		c1.419-0.76,2.602-1.903,3.549-3.426l5.928,3.458c-1.278,2.468-3.14,4.374-5.586,5.708c-2.453,1.34-5.279,2.007-8.489,2.007
		C151.219,93.802,148.154,93.083,145.438,91.642z"/>
	<path d="M210.162,63.525c2.57,2.326,3.855,5.832,3.855,10.525v19.318h-7.282v-4.012c-0.946,1.441-2.293,2.542-4.044,3.303
		c-1.752,0.76-3.857,1.142-6.328,1.142c-2.469,0-4.629-0.42-6.48-1.265c-1.853-0.844-3.282-2.016-4.291-3.518
		c-1.008-1.503-1.513-3.199-1.513-5.094c0-2.962,1.101-5.338,3.302-7.13c2.203-1.789,5.67-2.684,10.404-2.684h8.518v-0.496
		c0-2.302-0.691-4.072-2.07-5.308c-1.378-1.234-3.425-1.852-6.139-1.852c-1.853,0-3.675,0.289-5.464,0.864
		c-1.791,0.577-3.304,1.379-4.536,2.408l-3.027-5.616c1.729-1.319,3.807-2.324,6.236-3.025c2.427-0.699,4.999-1.049,7.716-1.049
		C203.872,60.037,207.589,61.199,210.162,63.525z M203.123,86.858c1.502-0.885,2.563-2.15,3.18-3.796v-3.827h-7.962
		c-4.446,0-6.668,1.46-6.668,4.381c0,1.402,0.555,2.512,1.667,3.336c1.11,0.823,2.655,1.234,4.629,1.234
		C199.902,88.186,201.622,87.743,203.123,86.858z"/>
	<path d="M237.29,92.752c-2.55-0.699-4.588-1.583-6.109-2.652l2.961-5.865c1.483,0.986,3.263,1.782,5.34,2.376
		c2.078,0.598,4.127,0.894,6.144,0.894c4.608,0,6.913-1.211,6.913-3.641c0-1.152-0.586-1.956-1.762-2.407
		c-1.169-0.454-3.053-0.884-5.646-1.297c-2.717-0.411-4.929-0.885-6.637-1.419c-1.708-0.534-3.188-1.473-4.443-2.809
		c-1.257-1.338-1.885-3.199-1.885-5.585c0-3.129,1.307-5.626,3.921-7.503c2.613-1.871,6.143-2.807,10.588-2.807
		c2.264,0,4.526,0.258,6.789,0.771c2.263,0.515,4.114,1.204,5.557,2.067l-2.965,5.865c-2.798-1.644-5.948-2.47-9.445-2.47
		c-2.262,0-3.981,0.34-5.152,1.019c-1.174,0.68-1.759,1.574-1.759,2.685c0,1.236,0.626,2.111,1.881,2.623
		c1.258,0.517,3.199,0.999,5.834,1.454c2.634,0.411,4.792,0.884,6.482,1.416c1.686,0.537,3.139,1.441,4.352,2.718
		c1.214,1.277,1.821,3.086,1.821,5.431c0,3.088-1.339,5.557-4.014,7.408c-2.673,1.853-6.315,2.778-10.925,2.778
		C242.454,93.802,239.842,93.452,237.29,92.752z"/>
	<path d="M309.699,60.406v32.963h-7.347v-4.197c-1.232,1.481-2.774,2.623-4.628,3.425c-1.852,0.803-3.849,1.204-5.988,1.204
		c-4.402,0-7.871-1.224-10.402-3.672c-2.529-2.448-3.796-6.08-3.796-10.895V60.406h7.717v17.778c0,2.964,0.668,5.177,2.005,6.637
		c1.338,1.461,3.24,2.19,5.712,2.19c2.755,0,4.948-0.854,6.574-2.562c1.625-1.707,2.438-4.166,2.438-7.377V60.406H309.699z"/>
	<path d="M354.608,63.525c2.57,2.326,3.858,5.832,3.858,10.525v19.318h-7.283v-4.012c-0.949,1.441-2.296,2.542-4.044,3.303
		c-1.751,0.76-3.859,1.142-6.328,1.142c-2.471,0-4.63-0.42-6.483-1.265c-1.85-0.844-3.281-2.016-4.289-3.518
		c-1.009-1.503-1.51-3.199-1.51-5.094c0-2.962,1.1-5.338,3.301-7.13c2.2-1.789,5.668-2.684,10.4-2.684h8.52v-0.496
		c0-2.302-0.689-4.072-2.068-5.308c-1.38-1.234-3.426-1.852-6.142-1.852c-1.853,0-3.675,0.289-5.464,0.864
		c-1.789,0.577-3.302,1.379-4.535,2.408l-3.025-5.616c1.728-1.319,3.805-2.324,6.233-3.025c2.428-0.699,5-1.049,7.718-1.049
		C348.322,60.037,352.035,61.199,354.608,63.525z M347.571,86.858c1.502-0.885,2.562-2.15,3.179-3.796v-3.827h-7.964
		c-4.445,0-6.666,1.46-6.666,4.381c0,1.402,0.557,2.512,1.666,3.336c1.111,0.823,2.655,1.234,4.632,1.234
		C344.352,88.186,346.067,87.743,347.571,86.858z"/>
	<path d="M379.394,47.567h7.716v45.802h-7.716V47.567z"/>
</g>
</svg>
