<?xml version="1.0" encoding="UTF-8" standalone="no"?><svg xmlns="http://www.w3.org/2000/svg" xmlns:xlink="http://www.w3.org/1999/xlink" contentScriptType="application/ecmascript" contentStyleType="text/css" height="1289px" preserveAspectRatio="none" style="width:1980px;height:1289px;" version="1.1" viewBox="0 0 1980 1289" width="1980px" zoomAndPan="magnify"><defs><filter height="300%" id="fv5x8d9" width="300%" x="-1" y="-1"><feGaussianBlur result="blurOut" stdDeviation="2.0"/><feColorMatrix in="blurOut" result="blurOut2" type="matrix" values="0 0 0 0 0 0 0 0 0 0 0 0 0 0 0 0 0 0 .4 0"/><feOffset dx="4.0" dy="4.0" in="blurOut2" result="blurOut3"/><feBlend in="SourceGraphic" in2="blurOut3" mode="normal"/></filter></defs><g><text fill="#000000" font-family="sans-serif" font-size="14" font-weight="bold" lengthAdjust="spacingAndGlyphs" textLength="129" x="927.75" y="22.9951">gateway startup</text><rect fill="#FFFFFF" filter="url(#fv5x8d9)" height="203.9297" style="stroke: #A80036; stroke-width: 1.0;" width="10" x="138" y="191.8594"/><rect fill="#FFFFFF" filter="url(#fv5x8d9)" height="58.2656" style="stroke: #A80036; stroke-width: 1.0;" width="10" x="280" y="220.9922"/><rect fill="#FFFFFF" filter="url(#fv5x8d9)" height="29.1328" style="stroke: #A80036; stroke-width: 1.0;" width="10" x="359" y="308.3906"/><rect fill="#FFFFFF" filter="url(#fv5x8d9)" height="122.5313" style="stroke: #A80036; stroke-width: 1.0;" width="10" x="444" y="366.6563"/><rect fill="#FFFFFF" filter="url(#fv5x8d9)" height="361.293" style="stroke: #A80036; stroke-width: 1.0;" width="10" x="618" y="803.3828"/><rect fill="#FFFFFF" filter="url(#fv5x8d9)" height="290.4609" style="stroke: #A80036; stroke-width: 1.0;" width="10" x="980" y="832.5156"/><rect fill="#FFFFFF" filter="url(#fv5x8d9)" height="520.8242" style="stroke: #A80036; stroke-width: 1.0;" width="10" x="1393" y="643.8516"/><rect fill="#FFFFFF" filter="url(#fv5x8d9)" height="123.2656" style="stroke: #A80036; stroke-width: 1.0;" width="10" x="1398" y="739.25"/><rect fill="#FFFFFF" filter="url(#fv5x8d9)" height="29.1328" style="stroke: #A80036; stroke-width: 1.0;" width="10" x="1564" y="585.5859"/><rect fill="#FFFFFF" filter="url(#fv5x8d9)" height="29.1328" style="stroke: #A80036; stroke-width: 1.0;" width="10" x="1728" y="1035.5781"/><rect fill="#FFFFFF" filter="url(#fv5x8d9)" height="116.5313" style="stroke: #A80036; stroke-width: 1.0;" width="10" x="1836.5" y="556.4531"/><rect fill="#FFFFFF" filter="url(#fv5x8d9)" height="350.5938" style="stroke: #000000; stroke-width: 2.0;" width="731" x="13" y="153.7266"/><rect fill="#FFFFFF" filter="url(#fv5x8d9)" height="667.0547" style="stroke: #000000; stroke-width: 2.0;" width="1728" x="243.5" y="518.3203"/><rect fill="#ADD8E6" height="1254.375" style="stroke: #A80036; stroke-width: 1.0;" width="651" x="19" y="34.2969"/><text fill="#000000" font-family="sans-serif" font-size="13" font-weight="bold" lengthAdjust="spacingAndGlyphs" textLength="70" x="309.5" y="46.3638">domain A</text><rect fill="#DDDDDD" height="1254.375" style="stroke: #A80036; stroke-width: 1.0;" width="1022" x="943.5" y="34.2969"/><text fill="#000000" font-family="sans-serif" font-size="13" font-weight="bold" lengthAdjust="spacingAndGlyphs" textLength="70" x="1419.5" y="46.3638">domain B</text><line style="stroke: #A80036; stroke-width: 1.0; stroke-dasharray: 5.0,5.0;" x1="44" x2="44" y1="136.7266" y2="1202.375"/><line style="stroke: #A80036; stroke-width: 1.0; stroke-dasharray: 5.0,5.0;" x1="143" x2="143" y1="136.7266" y2="1202.375"/><line style="stroke: #A80036; stroke-width: 1.0; stroke-dasharray: 5.0,5.0;" x1="284.5" x2="284.5" y1="136.7266" y2="1202.375"/><line style="stroke: #A80036; stroke-width: 1.0; stroke-dasharray: 5.0,5.0;" x1="363.5" x2="363.5" y1="136.7266" y2="1202.375"/><line style="stroke: #A80036; stroke-width: 1.0; stroke-dasharray: 5.0,5.0;" x1="448.5" x2="448.5" y1="136.7266" y2="1202.375"/><line style="stroke: #A80036; stroke-width: 1.0; stroke-dasharray: 5.0,5.0;" x1="623" x2="623" y1="136.7266" y2="1202.375"/><line style="stroke: #A80036; stroke-width: 1.0; stroke-dasharray: 5.0,5.0;" x1="984.5" x2="984.5" y1="136.7266" y2="1202.375"/><line style="stroke: #A80036; stroke-width: 1.0; stroke-dasharray: 5.0,5.0;" x1="1397.5" x2="1397.5" y1="136.7266" y2="1202.375"/><line style="stroke: #A80036; stroke-width: 1.0; stroke-dasharray: 5.0,5.0;" x1="1569" x2="1569" y1="136.7266" y2="1202.375"/><line style="stroke: #A80036; stroke-width: 1.0; stroke-dasharray: 5.0,5.0;" x1="1732.5" x2="1732.5" y1="136.7266" y2="1202.375"/><line style="stroke: #A80036; stroke-width: 1.0; stroke-dasharray: 5.0,5.0;" x1="1841.5" x2="1841.5" y1="136.7266" y2="1202.375"/><line style="stroke: #A80036; stroke-width: 1.0; stroke-dasharray: 5.0,5.0;" x1="1939.5" x2="1939.5" y1="136.7266" y2="1202.375"/><text fill="#000000" font-family="sans-serif" font-size="14" lengthAdjust="spacingAndGlyphs" textLength="37" x="23" y="133.4248">client</text><ellipse cx="44.5" cy="63.4297" fill="#FEFECE" filter="url(#fv5x8d9)" rx="8" ry="8" style="stroke: #A80036; stroke-width: 2.0;"/><path d="M44.5,71.4297 L44.5,98.4297 M31.5,79.4297 L57.5,79.4297 M44.5,98.4297 L31.5,113.4297 M44.5,98.4297 L57.5,113.4297 " fill="#FEFECE" filter="url(#fv5x8d9)" style="stroke: #A80036; stroke-width: 2.0;"/><text fill="#000000" font-family="sans-serif" font-size="14" lengthAdjust="spacingAndGlyphs" textLength="37" x="23" y="1214.3701">client</text><ellipse cx="44.5" cy="1227.6719" fill="#FEFECE" filter="url(#fv5x8d9)" rx="8" ry="8" style="stroke: #A80036; stroke-width: 2.0;"/><path d="M44.5,1235.6719 L44.5,1262.6719 M31.5,1243.6719 L57.5,1243.6719 M44.5,1262.6719 L31.5,1277.6719 M44.5,1262.6719 L57.5,1277.6719 " fill="#FEFECE" filter="url(#fv5x8d9)" style="stroke: #A80036; stroke-width: 2.0;"/><rect fill="#FEFECE" filter="url(#fv5x8d9)" height="30.2969" style="stroke: #A80036; stroke-width: 1.5;" width="130" x="76" y="101.4297"/><text fill="#000000" font-family="sans-serif" font-size="14" lengthAdjust="spacingAndGlyphs" textLength="116" x="83" y="121.4248">domain manager</text><rect fill="#FEFECE" filter="url(#fv5x8d9)" height="30.2969" style="stroke: #A80036; stroke-width: 1.5;" width="130" x="76" y="1201.375"/><text fill="#000000" font-family="sans-serif" font-size="14" lengthAdjust="spacingAndGlyphs" textLength="116" x="83" y="1221.3701">domain manager</text><rect fill="#FEFECE" filter="url(#fv5x8d9)" height="30.2969" style="stroke: #A80036; stroke-width: 1.5;" width="59" x="253.5" y="101.4297"/><text fill="#000000" font-family="sans-serif" font-size="14" lengthAdjust="spacingAndGlyphs" textLength="45" x="260.5" y="121.4248">broker</text><rect fill="#FEFECE" filter="url(#fv5x8d9)" height="30.2969" style="stroke: #A80036; stroke-width: 1.5;" width="59" x="253.5" y="1201.375"/><text fill="#000000" font-family="sans-serif" font-size="14" lengthAdjust="spacingAndGlyphs" textLength="45" x="260.5" y="1221.3701">broker</text><rect fill="#FEFECE" filter="url(#fv5x8d9)" height="30.2969" style="stroke: #A80036; stroke-width: 1.5;" width="71" x="326.5" y="101.4297"/><text fill="#000000" font-family="sans-serif" font-size="14" lengthAdjust="spacingAndGlyphs" textLength="57" x="333.5" y="121.4248">Server A</text><rect fill="#FEFECE" filter="url(#fv5x8d9)" height="30.2969" style="stroke: #A80036; stroke-width: 1.5;" width="71" x="326.5" y="1201.375"/><text fill="#000000" font-family="sans-serif" font-size="14" lengthAdjust="spacingAndGlyphs" textLength="57" x="333.5" y="1221.3701">Server A</text><rect fill="#FEFECE" filter="url(#fv5x8d9)" height="30.2969" style="stroke: #A80036; stroke-width: 1.5;" width="71" x="411.5" y="101.4297"/><text fill="#000000" font-family="sans-serif" font-size="14" lengthAdjust="spacingAndGlyphs" textLength="57" x="418.5" y="121.4248">gateway</text><rect fill="#FEFECE" filter="url(#fv5x8d9)" height="30.2969" style="stroke: #A80036; stroke-width: 1.5;" width="71" x="411.5" y="1201.375"/><text fill="#000000" font-family="sans-serif" font-size="14" lengthAdjust="spacingAndGlyphs" textLength="57" x="418.5" y="1221.3701">gateway</text><rect fill="#FEFECE" filter="url(#fv5x8d9)" height="30.2969" style="stroke: #A80036; stroke-width: 1.5;" width="82" x="580" y="101.4297"/><text fill="#000000" font-family="sans-serif" font-size="14" lengthAdjust="spacingAndGlyphs" textLength="68" x="587" y="121.4248">outbound</text><rect fill="#FEFECE" filter="url(#fv5x8d9)" height="30.2969" style="stroke: #A80036; stroke-width: 1.5;" width="82" x="580" y="1201.375"/><text fill="#000000" font-family="sans-serif" font-size="14" lengthAdjust="spacingAndGlyphs" textLength="68" x="587" y="1221.3701">outbound</text><rect fill="#FEFECE" filter="url(#fv5x8d9)" height="30.2969" style="stroke: #A80036; stroke-width: 1.5;" width="71" x="947.5" y="101.4297"/><text fill="#000000" font-family="sans-serif" font-size="14" lengthAdjust="spacingAndGlyphs" textLength="57" x="954.5" y="121.4248">inbound</text><rect fill="#FEFECE" filter="url(#fv5x8d9)" height="30.2969" style="stroke: #A80036; stroke-width: 1.5;" width="71" x="947.5" y="1201.375"/><text fill="#000000" font-family="sans-serif" font-size="14" lengthAdjust="spacingAndGlyphs" textLength="57" x="954.5" y="1221.3701">inbound</text><rect fill="#FEFECE" filter="url(#fv5x8d9)" height="30.2969" style="stroke: #A80036; stroke-width: 1.5;" width="71" x="1360.5" y="101.4297"/><text fill="#000000" font-family="sans-serif" font-size="14" lengthAdjust="spacingAndGlyphs" textLength="57" x="1367.5" y="121.4248">gateway</text><rect fill="#FEFECE" filter="url(#fv5x8d9)" height="30.2969" style="stroke: #A80036; stroke-width: 1.5;" width="71" x="1360.5" y="1201.375"/><text fill="#000000" font-family="sans-serif" font-size="14" lengthAdjust="spacingAndGlyphs" textLength="57" x="1367.5" y="1221.3701">gateway</text><rect fill="#FEFECE" filter="url(#fv5x8d9)" height="30.2969" style="stroke: #A80036; stroke-width: 1.5;" width="72" x="1531" y="101.4297"/><text fill="#000000" font-family="sans-serif" font-size="14" lengthAdjust="spacingAndGlyphs" textLength="58" x="1538" y="121.4248">Server B</text><rect fill="#FEFECE" filter="url(#fv5x8d9)" height="30.2969" style="stroke: #A80036; stroke-width: 1.5;" width="72" x="1531" y="1201.375"/><text fill="#000000" font-family="sans-serif" font-size="14" lengthAdjust="spacingAndGlyphs" textLength="58" x="1538" y="1221.3701">Server B</text><rect fill="#FEFECE" filter="url(#fv5x8d9)" height="30.2969" style="stroke: #A80036; stroke-width: 1.5;" width="59" x="1701.5" y="101.4297"/><text fill="#000000" font-family="sans-serif" font-size="14" lengthAdjust="spacingAndGlyphs" textLength="45" x="1708.5" y="121.4248">broker</text><rect fill="#FEFECE" filter="url(#fv5x8d9)" height="30.2969" style="stroke: #A80036; stroke-width: 1.5;" width="59" x="1701.5" y="1201.375"/><text fill="#000000" font-family="sans-serif" font-size="14" lengthAdjust="spacingAndGlyphs" textLength="45" x="1708.5" y="1221.3701">broker</text><rect fill="#FEFECE" filter="url(#fv5x8d9)" height="30.2969" style="stroke: #A80036; stroke-width: 1.5;" width="130" x="1774.5" y="101.4297"/><text fill="#000000" font-family="sans-serif" font-size="14" lengthAdjust="spacingAndGlyphs" textLength="116" x="1781.5" y="121.4248">domain manager</text><rect fill="#FEFECE" filter="url(#fv5x8d9)" height="30.2969" style="stroke: #A80036; stroke-width: 1.5;" width="130" x="1774.5" y="1201.375"/><text fill="#000000" font-family="sans-serif" font-size="14" lengthAdjust="spacingAndGlyphs" textLength="116" x="1781.5" y="1221.3701">domain manager</text><text fill="#000000" font-family="sans-serif" font-size="14" lengthAdjust="spacingAndGlyphs" textLength="37" x="1918.5" y="133.4248">client</text><ellipse cx="1940" cy="63.4297" fill="#FEFECE" filter="url(#fv5x8d9)" rx="8" ry="8" style="stroke: #A80036; stroke-width: 2.0;"/><path d="M1940,71.4297 L1940,98.4297 M1927,79.4297 L1953,79.4297 M1940,98.4297 L1927,113.4297 M1940,98.4297 L1953,113.4297 " fill="#FEFECE" filter="url(#fv5x8d9)" style="stroke: #A80036; stroke-width: 2.0;"/><text fill="#000000" font-family="sans-serif" font-size="14" lengthAdjust="spacingAndGlyphs" textLength="37" x="1918.5" y="1214.3701">client</text><ellipse cx="1940" cy="1227.6719" fill="#FEFECE" filter="url(#fv5x8d9)" rx="8" ry="8" style="stroke: #A80036; stroke-width: 2.0;"/><path d="M1940,1235.6719 L1940,1262.6719 M1927,1243.6719 L1953,1243.6719 M1940,1262.6719 L1927,1277.6719 M1940,1262.6719 L1953,1277.6719 " fill="#FEFECE" filter="url(#fv5x8d9)" style="stroke: #A80036; stroke-width: 2.0;"/><rect fill="#FFFFFF" filter="url(#fv5x8d9)" height="203.9297" style="stroke: #A80036; stroke-width: 1.0;" width="10" x="138" y="191.8594"/><rect fill="#FFFFFF" filter="url(#fv5x8d9)" height="58.2656" style="stroke: #A80036; stroke-width: 1.0;" width="10" x="280" y="220.9922"/><rect fill="#FFFFFF" filter="url(#fv5x8d9)" height="29.1328" style="stroke: #A80036; stroke-width: 1.0;" width="10" x="359" y="308.3906"/><rect fill="#FFFFFF" filter="url(#fv5x8d9)" height="122.5313" style="stroke: #A80036; stroke-width: 1.0;" width="10" x="444" y="366.6563"/><rect fill="#FFFFFF" filter="url(#fv5x8d9)" height="361.293" style="stroke: #A80036; stroke-width: 1.0;" width="10" x="618" y="803.3828"/><rect fill="#FFFFFF" filter="url(#fv5x8d9)" height="290.4609" style="stroke: #A80036; stroke-width: 1.0;" width="10" x="980" y="832.5156"/><rect fill="#FFFFFF" filter="url(#fv5x8d9)" height="520.8242" style="stroke: #A80036; stroke-width: 1.0;" width="10" x="1393" y="643.8516"/><rect fill="#FFFFFF" filter="url(#fv5x8d9)" height="123.2656" style="stroke: #A80036; stroke-width: 1.0;" width="10" x="1398" y="739.25"/><rect fill="#FFFFFF" filter="url(#fv5x8d9)" height="29.1328" style="stroke: #A80036; stroke-width: 1.0;" width="10" x="1564" y="585.5859"/><rect fill="#FFFFFF" filter="url(#fv5x8d9)" height="29.1328" style="stroke: #A80036; stroke-width: 1.0;" width="10" x="1728" y="1035.5781"/><rect fill="#FFFFFF" filter="url(#fv5x8d9)" height="116.5313" style="stroke: #A80036; stroke-width: 1.0;" width="10" x="1836.5" y="556.4531"/><rect fill="none" height="350.5938" style="stroke: #000000; stroke-width: 2.0;" width="731" x="13" y="153.7266"/><polygon fill="#EEEEEE" points="13,153.7266,112,153.7266,112,160.7266,102,170.7266,13,170.7266,13,153.7266" style="stroke: #000000; stroke-width: 2.0;"/><text fill="#000000" font-family="sans-serif" font-size="13" font-weight="bold" lengthAdjust="spacingAndGlyphs" textLength="54" x="28" y="166.7935">startup</text><polygon fill="#A80036" points="126,187.8594,136,191.8594,126,195.8594,130,191.8594" style="stroke: #A80036; stroke-width: 1.0;"/><line style="stroke: #A80036; stroke-width: 1.0;" x1="44.5" x2="132" y1="191.8594" y2="191.8594"/><text fill="#000000" font-family="sans-serif" font-size="13" lengthAdjust="spacingAndGlyphs" textLength="29" x="51.5" y="186.9263">boot</text><polygon fill="#A80036" points="268,216.9922,278,220.9922,268,224.9922,272,220.9922" style="stroke: #A80036; stroke-width: 1.0;"/><line style="stroke: #A80036; stroke-width: 1.0;" x1="148" x2="274" y1="220.9922" y2="220.9922"/><text fill="#000000" font-family="sans-serif" font-size="13" lengthAdjust="spacingAndGlyphs" textLength="85" x="155" y="216.0591">spawn broker</text><polygon fill="#A80036" points="159,246.125,149,250.125,159,254.125,155,250.125" style="stroke: #A80036; stroke-width: 1.0;"/><line style="stroke: #A80036; stroke-width: 1.0;" x1="153" x2="279" y1="250.125" y2="250.125"/><text fill="#000000" font-family="sans-serif" font-size="13" lengthAdjust="spacingAndGlyphs" textLength="103" x="165" y="245.1919">domain connect</text><polygon fill="#A80036" points="159,275.2578,149,279.2578,159,283.2578,155,279.2578" style="stroke: #A80036; stroke-width: 1.0;"/><line style="stroke: #A80036; stroke-width: 1.0;" x1="153" x2="284" y1="279.2578" y2="279.2578"/><text fill="#000000" font-family="sans-serif" font-size="13" lengthAdjust="spacingAndGlyphs" textLength="108" x="165" y="274.3247">get configuration</text><polygon fill="#A80036" points="347,304.3906,357,308.3906,347,312.3906,351,308.3906" style="stroke: #A80036; stroke-width: 1.0;"/><line style="stroke: #A80036; stroke-width: 1.0;" x1="148" x2="353" y1="308.3906" y2="308.3906"/><text fill="#000000" font-family="sans-serif" font-size="13" lengthAdjust="spacingAndGlyphs" textLength="99" x="155" y="303.4575">spawn Server A</text><polygon fill="#A80036" points="159,333.5234,149,337.5234,159,341.5234,155,337.5234" style="stroke: #A80036; stroke-width: 1.0;"/><line style="stroke: #A80036; stroke-width: 1.0;" x1="153" x2="363" y1="337.5234" y2="337.5234"/><text fill="#000000" font-family="sans-serif" font-size="13" lengthAdjust="spacingAndGlyphs" textLength="103" x="165" y="332.5903">domain connect</text><polygon fill="#A80036" points="432,362.6563,442,366.6563,432,370.6563,436,366.6563" style="stroke: #A80036; stroke-width: 1.0;"/><line style="stroke: #A80036; stroke-width: 1.0;" x1="148" x2="438" y1="366.6563" y2="366.6563"/><text fill="#000000" font-family="sans-serif" font-size="13" lengthAdjust="spacingAndGlyphs" textLength="110" x="155" y="361.7231">spawn gateway A</text><polygon fill="#A80036" points="154,391.7891,144,395.7891,154,399.7891,150,395.7891" style="stroke: #A80036; stroke-width: 1.0;"/><line style="stroke: #A80036; stroke-width: 1.0;" x1="148" x2="443" y1="395.7891" y2="395.7891"/><text fill="#000000" font-family="sans-serif" font-size="13" lengthAdjust="spacingAndGlyphs" textLength="103" x="160" y="390.856">domain connect</text><polygon fill="#A80036" points="154,420.9219,144,424.9219,154,428.9219,150,424.9219" style="stroke: #A80036; stroke-width: 1.0;"/><line style="stroke: #A80036; stroke-width: 1.0;" x1="148" x2="443" y1="424.9219" y2="424.9219"/><text fill="#000000" font-family="sans-serif" font-size="13" lengthAdjust="spacingAndGlyphs" textLength="108" x="160" y="419.9888">get configuration</text><polygon fill="#A80036" points="611,450.0547,621,454.0547,611,458.0547,615,454.0547" style="stroke: #A80036; stroke-width: 1.0;"/><line style="stroke: #A80036; stroke-width: 1.0;" x1="454" x2="617" y1="454.0547" y2="454.0547"/><text fill="#000000" font-family="sans-serif" font-size="13" lengthAdjust="spacingAndGlyphs" textLength="128" x="461" y="449.1216">spawn outbound (B)</text><line style="stroke: #A80036; stroke-width: 1.0;" x1="623" x2="665" y1="488.3203" y2="488.3203"/><line style="stroke: #A80036; stroke-width: 1.0;" x1="665" x2="665" y1="488.3203" y2="501.3203"/><line style="stroke: #A80036; stroke-width: 1.0;" x1="618" x2="665" y1="501.3203" y2="501.3203"/><polygon fill="#A80036" points="628,497.3203,618,501.3203,628,505.3203,624,501.3203" style="stroke: #A80036; stroke-width: 1.0;"/><text fill="#000000" font-family="sans-serif" font-size="13" lengthAdjust="spacingAndGlyphs" textLength="102" x="630" y="483.2544">try connect to B</text><rect fill="none" height="667.0547" style="stroke: #000000; stroke-width: 2.0;" width="1728" x="243.5" y="518.3203"/><polygon fill="#EEEEEE" points="243.5,518.3203,342.5,518.3203,342.5,525.3203,332.5,535.3203,243.5,535.3203,243.5,518.3203" style="stroke: #000000; stroke-width: 2.0;"/><text fill="#000000" font-family="sans-serif" font-size="13" font-weight="bold" lengthAdjust="spacingAndGlyphs" textLength="54" x="258.5" y="531.3872">startup</text><polygon fill="#A80036" points="1857.5,552.4531,1847.5,556.4531,1857.5,560.4531,1853.5,556.4531" style="stroke: #A80036; stroke-width: 1.0;"/><line style="stroke: #A80036; stroke-width: 1.0;" x1="1851.5" x2="1939" y1="556.4531" y2="556.4531"/><text fill="#000000" font-family="sans-serif" font-size="13" lengthAdjust="spacingAndGlyphs" textLength="29" x="1863.5" y="551.52">boot</text><polygon fill="#A80036" points="1585,581.5859,1575,585.5859,1585,589.5859,1581,585.5859" style="stroke: #A80036; stroke-width: 1.0;"/><line style="stroke: #A80036; stroke-width: 1.0;" x1="1579" x2="1835.5" y1="585.5859" y2="585.5859"/><text fill="#000000" font-family="sans-serif" font-size="13" lengthAdjust="spacingAndGlyphs" textLength="99" x="1591" y="580.6528">spawn Server A</text><polygon fill="#A80036" points="1824.5,610.7188,1834.5,614.7188,1824.5,618.7188,1828.5,614.7188" style="stroke: #A80036; stroke-width: 1.0;"/><line style="stroke: #A80036; stroke-width: 1.0;" x1="1569" x2="1830.5" y1="614.7188" y2="614.7188"/><text fill="#000000" font-family="sans-serif" font-size="13" lengthAdjust="spacingAndGlyphs" textLength="103" x="1576" y="609.7856">domain connect</text><polygon fill="#A80036" points="1414,639.8516,1404,643.8516,1414,647.8516,1410,643.8516" style="stroke: #A80036; stroke-width: 1.0;"/><line style="stroke: #A80036; stroke-width: 1.0;" x1="1408" x2="1835.5" y1="643.8516" y2="643.8516"/><text fill="#000000" font-family="sans-serif" font-size="13" lengthAdjust="spacingAndGlyphs" textLength="110" x="1420" y="638.9185">spawn gateway A</text><polygon fill="#A80036" points="1829.5,668.9844,1839.5,672.9844,1829.5,676.9844,1833.5,672.9844" style="stroke: #A80036; stroke-width: 1.0;"/><line style="stroke: #A80036; stroke-width: 1.0;" x1="1403" x2="1835.5" y1="672.9844" y2="672.9844"/><text fill="#000000" font-family="sans-serif" font-size="13" lengthAdjust="spacingAndGlyphs" textLength="103" x="1410" y="668.0513">domain connect</text><polygon fill="#A80036" points="1829.5,698.1172,1839.5,702.1172,1829.5,706.1172,1833.5,702.1172" style="stroke: #A80036; stroke-width: 1.0;"/><line style="stroke: #A80036; stroke-width: 1.0;" x1="1403" x2="1835.5" y1="702.1172" y2="702.1172"/><text fill="#000000" font-family="sans-serif" font-size="13" lengthAdjust="spacingAndGlyphs" textLength="108" x="1410" y="697.1841">get configuration</text><line style="stroke: #A80036; stroke-width: 1.0;" x1="1408" x2="1450" y1="731.3828" y2="731.3828"/><line style="stroke: #A80036; stroke-width: 1.0;" x1="1450" x2="1450" y1="731.3828" y2="744.3828"/><line style="stroke: #A80036; stroke-width: 1.0;" x1="1409" x2="1450" y1="744.3828" y2="744.3828"/><polygon fill="#A80036" points="1419,740.3828,1409,744.3828,1419,748.3828,1415,744.3828" style="stroke: #A80036; stroke-width: 1.0;"/><text fill="#000000" font-family="sans-serif" font-size="13" lengthAdjust="spacingAndGlyphs" textLength="147" x="1415" y="726.3169">spawn listener (thread)</text><polygon fill="#A80036" points="1386,799.3828,1396,803.3828,1386,807.3828,1390,803.3828" style="stroke: #A80036; stroke-width: 1.0;"/><line style="stroke: #A80036; stroke-width: 1.0;" x1="628" x2="1392" y1="803.3828" y2="803.3828"/><text fill="#000000" font-family="sans-serif" font-size="13" lengthAdjust="spacingAndGlyphs" textLength="119" x="635" y="798.4497">connect (socket X)</text><polygon fill="#A80036" points="1001,828.5156,991,832.5156,1001,836.5156,997,832.5156" style="stroke: #A80036; stroke-width: 1.0;"/><line style="stroke: #A80036; stroke-width: 1.0;" x1="995" x2="1397" y1="832.5156" y2="832.5156"/><text fill="#000000" font-family="sans-serif" font-size="13" lengthAdjust="spacingAndGlyphs" textLength="176" x="1007" y="827.5825">spawn inbound (A socket X)</text><polygon fill="#A80036" points="968,930.4805,978,934.4805,968,938.4805,972,934.4805" style="stroke: #A80036; stroke-width: 1.0;"/><line style="stroke: #A80036; stroke-width: 1.0;" x1="628" x2="974" y1="934.4805" y2="934.4805"/><text fill="#000000" font-family="sans-serif" font-size="13" lengthAdjust="spacingAndGlyphs" textLength="328" x="635" y="929.5474">message::interdomain::domain::discovery::Request</text><polygon fill="#FBFB77" filter="url(#fv5x8d9)" points="312,875.6484,312,975.6484,609,975.6484,609,885.6484,599,875.6484,312,875.6484" style="stroke: #A80036; stroke-width: 1.0;"/><line style="stroke: #A80036; stroke-width: 1.0;" x1="599" x2="599" y1="875.6484" y2="885.6484"/><line style="stroke: #A80036; stroke-width: 1.0;" x1="609" x2="599" y1="885.6484" y2="885.6484"/><text fill="#000000" font-family="sans-serif" font-size="13" lengthAdjust="spacingAndGlyphs" textLength="209" x="318" y="892.7153">outbound asks the other domain</text><text fill="#000000" font-family="sans-serif" font-size="13" lengthAdjust="spacingAndGlyphs" textLength="184" x="318" y="907.8481">if it got some of the provided</text><text fill="#000000" font-family="sans-serif" font-size="13" lengthAdjust="spacingAndGlyphs" textLength="135" x="318" y="922.981">services and queues.</text><text fill="#000000" font-family="sans-serif" font-size="13" lengthAdjust="spacingAndGlyphs" textLength="233" x="318" y="938.1138">During startup, this is the configured</text><text fill="#000000" font-family="sans-serif" font-size="13" lengthAdjust="spacingAndGlyphs" textLength="276" x="318" y="953.2466">services and queues. During runtime this is</text><text fill="#000000" font-family="sans-serif" font-size="13" lengthAdjust="spacingAndGlyphs" textLength="183" x="318" y="968.3794">absent services and queues.</text><polygon fill="#A80036" points="1381,1002.4453,1391,1006.4453,1381,1010.4453,1385,1006.4453" style="stroke: #A80036; stroke-width: 1.0;"/><line style="stroke: #A80036; stroke-width: 1.0;" x1="990" x2="1387" y1="1006.4453" y2="1006.4453"/><text fill="#000000" font-family="sans-serif" font-size="13" lengthAdjust="spacingAndGlyphs" textLength="306" x="997" y="1001.5122">common::message::gateway::discover::Request</text><polygon fill="#A80036" points="1716,1031.5781,1726,1035.5781,1716,1039.5781,1720,1035.5781" style="stroke: #A80036; stroke-width: 1.0;"/><line style="stroke: #A80036; stroke-width: 1.0;" x1="1403" x2="1722" y1="1035.5781" y2="1035.5781"/><text fill="#000000" font-family="sans-serif" font-size="13" lengthAdjust="spacingAndGlyphs" textLength="306" x="1410" y="1030.645">common::message::gateway::discover::Request</text><polygon fill="#A80036" points="1414,1060.7109,1404,1064.7109,1414,1068.7109,1410,1064.7109" style="stroke: #A80036; stroke-width: 1.0;"/><line style="stroke: #A80036; stroke-width: 1.0;" x1="1408" x2="1732" y1="1064.7109" y2="1064.7109"/><text fill="#000000" font-family="sans-serif" font-size="13" lengthAdjust="spacingAndGlyphs" textLength="288" x="1420" y="1059.7778">common::message::gateway::discover::Reply</text><polygon fill="#A80036" points="1001,1089.8438,991,1093.8438,1001,1097.8438,997,1093.8438" style="stroke: #A80036; stroke-width: 1.0;"/><line style="stroke: #A80036; stroke-width: 1.0;" x1="995" x2="1392" y1="1093.8438" y2="1093.8438"/><text fill="#000000" font-family="sans-serif" font-size="13" lengthAdjust="spacingAndGlyphs" textLength="379" x="1007" y="1088.9106">common::message::gateway::discover::accumulated::Reply</text><polygon fill="#A80036" points="639,1118.9766,629,1122.9766,639,1126.9766,635,1122.9766" style="stroke: #A80036; stroke-width: 1.0;"/><line style="stroke: #A80036; stroke-width: 1.0;" x1="633" x2="984" y1="1122.9766" y2="1122.9766"/><text fill="#000000" font-family="sans-serif" font-size="13" lengthAdjust="spacingAndGlyphs" textLength="310" x="645" y="1118.0435">message::interdomain::domain::discovery::Reply</text><polygon fill="#A80036" points="296,1160.6758,286,1164.6758,296,1168.6758,292,1164.6758" style="stroke: #A80036; stroke-width: 1.0;"/><line style="stroke: #A80036; stroke-width: 1.0;" x1="290" x2="622" y1="1164.6758" y2="1164.6758"/><text fill="#000000" font-family="sans-serif" font-size="13" lengthAdjust="spacingAndGlyphs" textLength="309" x="302" y="1159.7427">common::message::gateway::domain::Advertise</text><polygon fill="#FBFB77" filter="url(#fv5x8d9)" points="633,1136.1094,633,1176.1094,921,1176.1094,921,1146.1094,911,1136.1094,633,1136.1094" style="stroke: #A80036; stroke-width: 1.0;"/><line style="stroke: #A80036; stroke-width: 1.0;" x1="911" x2="911" y1="1136.1094" y2="1146.1094"/><line style="stroke: #A80036; stroke-width: 1.0;" x1="921" x2="911" y1="1146.1094" y2="1146.1094"/><text fill="#000000" font-family="sans-serif" font-size="13" lengthAdjust="spacingAndGlyphs" textLength="267" x="639" y="1153.1763">outbound advertises the services that the</text><text fill="#000000" font-family="sans-serif" font-size="13" lengthAdjust="spacingAndGlyphs" textLength="162" x="639" y="1168.3091">other domain replied with</text></g></svg>